<?xml version="1.0" encoding="UTF-8"?>
<svg id="Layer_1" data-name="Layer 1" xmlns="http://www.w3.org/2000/svg" viewBox="0 0 598.91 601.53">
  <defs>
    <style>
      .cls-1 {
        fill: #e62138;
      }

      .cls-2 {
        fill: #e9b3b9;
      }

      .cls-3 {
        fill: #e12e42;
      }

      .cls-4 {
        fill: #147356;
      }

      .cls-5 {
        fill: #ebd2d3;
      }

      .cls-6 {
        fill: #e2283e;
      }

      .cls-7 {
        fill: #0c7054;
      }

      .cls-8 {
        fill: #e2263c;
      }

      .cls-9 {
        fill: #e51f36;
      }

      .cls-10 {
        fill: #eac1c7;
      }

      .cls-11 {
        fill: #e21f3b;
      }

      .cls-12 {
        fill: #e7b1b5;
      }

      .cls-13 {
        fill: #e2273c;
      }

      .cls-14 {
        fill: #e2213b;
      }

      .cls-15 {
        fill: #0f7256;
      }

      .cls-16 {
        fill: #e13243;
      }

      .cls-17 {
        fill: #ec6835;
      }

      .cls-18 {
        fill: #e12940;
      }

      .cls-19 {
        fill: #e32b41;
      }

      .cls-20 {
        fill: #e43043;
      }

      .cls-21 {
        fill: #e23243;
      }

      .cls-22 {
        fill: #147357;
      }

      .cls-23 {
        fill: #e32139;
      }

      .cls-24 {
        fill: #e3263b;
      }

      .cls-25 {
        fill: #e51f38;
      }

      .cls-26 {
        fill: #d98791;
      }

      .cls-27 {
        fill: #e32c42;
      }

      .cls-28 {
        fill: #1a7459;
      }

      .cls-29 {
        fill: #e2223a;
      }

      .cls-30 {
        fill: #ebcfd2;
      }

      .cls-31 {
        fill: #177357;
      }

      .cls-32 {
        fill: #e13547;
      }

      .cls-33 {
        fill: #eec7cd;
      }

      .cls-34 {
        fill: #ebbcbe;
      }

      .cls-35 {
        fill: #91b8ae;
      }

      .cls-36 {
        fill: #e2253c;
      }

      .cls-37 {
        fill: #036f52;
      }

      .cls-38 {
        fill: #036f51;
      }

      .cls-39 {
        fill: #e2283f;
      }

      .cls-40 {
        fill: #046f52;
      }

      .cls-41 {
        fill: #e32c40;
      }

      .cls-42 {
        fill: #e7acb1;
      }

      .cls-43 {
        fill: #d54369;
      }

      .cls-44 {
        fill: #d03359;
      }

      .cls-45 {
        fill: #047053;
      }

      .cls-46 {
        fill: #e3293f;
      }
    </style>
  </defs>
  <path class="cls-45" d="M293.98,175.94v17.87h-25.78v16.75h25.78v17.87h-25.78v20.1h25.78v17.87h-49.89c-.12,0-1.68-1.56-1.68-1.68v-88.79h51.57Z"/>
  <polygon class="cls-37" points="353.39 175.94 353.39 193.81 327.61 193.81 327.61 210.56 353.39 210.56 353.39 228.43 327.61 228.43 327.61 248.53 353.39 248.53 353.39 266.4 302.95 266.4 302.95 175.94 353.39 175.94"/>
  <path class="cls-37" d="M174.03,175.94v18.99h-25.78v15.64h25.78v17.87h-25.78v36.3c0,.12-1.56,1.68-1.68,1.68h-22.98v-90.46h50.45Z"/>
  <path class="cls-37" d="M422.9,175.94v18.99h-17.94v71.48h-22.98c-.12,0-1.68-1.56-1.68-1.68v-69.8h-17.94v-18.99h60.54Z"/>
  <path class="cls-38" d="M207.66,175.94v70.36h25.22c.12,0,1.68,1.56,1.68,1.68v16.75c0,.12-1.56,1.68-1.68,1.68h-49.89v-90.46h24.66Z"/>
  <path class="cls-9" d="M98.92,175.94v30.71c-12.57,6.98-24.58,17.24-28.03,31.83h-32.51c5.39-29.67,31.13-55.72,60.54-62.54Z"/>
  <path class="cls-17" d="M80.98,175.94l-20.19,13.95c-5.67,5.26-10.74,10.95-15.12,17.32H3.63v-31.27h77.35Z"/>
  <path class="cls-17" d="M323.13,286.51c3.7.88,3.41,14.1,0,15.64-33.61.04-67.28.05-100.89,0-1.67-2.98-2.47-14.12,1.12-15.64,33.24-.04,66.53-.04,99.77,0Z"/>
  <path class="cls-40" d="M323.13,286.51c33.24.04,66.53-.03,99.77,0v15.64c-33.24.03-66.53-.04-99.77,0v-15.64Z"/>
  <path class="cls-25" d="M223.35,286.51c-.41,5.14,1.1,10.89-1.12,15.64-32.86-.04-65.79.03-98.65,0v-15.64c33.24-.03,66.53.04,99.77,0Z"/>
  <path class="cls-1" d="M35.02,271.43c.24-.9,5.06-1.68,6.17-1.68h24.66c.12,0,1.68,1.56,1.68,1.68v29.04c0,.12-1.56,1.68-1.68,1.68h-29.15c-.12,0-1.68-1.56-1.68-1.68v-29.04Z"/>
  <path class="cls-27" d="M550.7,244.07c-.13-1.88.86-2.32,2.95-1.3,9.36-.26,20.42-.24,29.75.16.33.01.63.51.93,1.15-.08.52,1.02,6.7-1.68,6.7h-125l1.66-2.24,44.81-1.04c1.35-.26-.12-3.24,1.23-3.5,4.01-.78,25.69-.56,30.27.03,5.03.64,4.99,4.75,11.44,2.56,1.42-.48,3.28-2.42,3.64-2.51Z"/>
  <path class="cls-41" d="M592.17,199.39l-.77,1.07-27.75.31c-.56,2.01-1.52,1.55-2.87-1.37-5.54-1.65-5.14-5.18-13.96.05l-79.08-.06c-.26-1.95,2.54-1.05,3.91-1.11,4.65-.19,10.12.57,14.53-.06,1.74-.25,3.1-1.89,5.6-2.24,6.69-.94,18.84,1.56,24.5.08,1.14-.3,1.11-2.28,1.89-2.78,5.24-3.39,60.68,1.35,71.2-.6,3.81.38,2.61,3.9,2.8,6.7Z"/>
  <path class="cls-19" d="M579.84,225.08h-104.26l1.66-2.24,43.18-1.12-1.12-3.34h53.25c1.21,0,6.64,4.96,7.29,6.7Z"/>
  <path class="cls-11" d="M481.19,257.47c.16,0,1.26-1.1,2.71-1.16,6.66-.27,17.88,1.23,23.58.12,1.35-.26-.12-3.24,1.23-3.5l72.25.09c-1.65,2.53-3.9,5.57-7.23,5.63-30.84.23-61.73-.51-92.54-.06-.98-.32-.96-.69,0-1.12Z"/>
  <path class="cls-23" d="M493.52,189.34c8.03-.45,19.79-.59,27.35-1.41,1.96-.21,3.47-2.67,6.79-3.11,16.99-2.2,38.63,1.79,56.16,0,3.55-.15,4.87,2.82,6.11,5.63-32.12-.06-64.29.12-96.41.01-.98-.32-.96-.69,0-1.12Z"/>
  <path class="cls-14" d="M582.08,182.64h-98.65l1.66-2.24c16.48-1.33,35.43.4,51.58-1.12,5.85-.55,11.5-2.98,17.9-3.39,8.54-.54,21.96-.53,27.52,6.75Z"/>
  <path class="cls-39" d="M473.34,267.52c-.25-1.97,2.53-1.06,3.91-1.12,4.11-.17,10.96.77,14.37-.02.91-.21.3-2.03,2.38-2.3,4.06-.53,24.06.93,25.31.08l-1.14-2.22h51.01c1.55,1.08-1.59,1.99-2.21,2.26-2.14.91-10.54,3.32-12.36,3.32h-81.28Z"/>
  <path class="cls-29" d="M469.98,216.15c-.25-1.97,2.53-1.06,3.91-1.12,4.65-.19,10.12.57,14.53-.06,1.74-.25,3.1-1.89,5.6-2.24,5.76-.81,13.4.88,19.19.15,2.14-.27,1.07-2.14,3.21-2.41,11.16-1.41,25.47,1.16,37,.16l12.96,5.52h-96.41Z"/>
  <path class="cls-32" d="M466.62,208.33l1.66-2.24,43.78-1.09c2.71-.17,1.8-3.16,4.4-3.47,5.03-.6,25.64-.78,30.22.03.95.17,1.21,5.4,1.77,6.77h-81.84Z"/>
  <path class="cls-3" d="M456.53,241.83c-.25-1.97,2.53-1.06,3.91-1.12,4.65-.19,10.12.57,14.53-.06,1.74-.25,3.1-1.89,5.6-2.24,6.11-.86,17.08,1.44,22.26.08,1.14-.3,1.11-2.28,1.89-2.78,3.61-2.33,25.56.52,31.41-.6v6.71h-79.6Z"/>
  <path class="cls-46" d="M543.41,234.02l-14.01-6.7h52.13c1.43,0,4.19,6.7,1.12,6.7h-39.24Z"/>
  <path class="cls-7" d="M98.92,266.4h-5.61v-16.19c0-2.1-5.61-2.1-5.61,0v16.19h-5.61v-22.34c3.92,1.08,16.82-2.11,16.82,3.91v18.43Z"/>
  <path class="cls-13" d="M560.79,295.44c-.89,1.81-2.28,5.93-4.1,6.52-9.13,2.95-4.94-5.36-6.55-5.42-2.54,7.24-9.71,9.1-9.61-.56.05-4.62.13-11.41,5.68-9.48l.02,6.71c2.41-.36,3.77-5.95,4.7-6.46.79-.43,4.06-.42,4.25-.25.83.75-1.82,7.17,1.68,6.71,1.77-4.85,1.24-7.02,7.3-6.71,1.26,2.92,1.15,8.27-3.36,8.93Z"/>
  <path class="cls-24" d="M471.1,280.92c2.15,2.51,5.49,7.45,1.32,8.9,1.84,2.65.39,9.01-2.44,10.09-5.75,4.14-15.41,2.79-14.57-5.58,1.58.06,3.42-.33,4.91.15,1.96.63,1.14,4.08,3.47,3.18,5.71-2.2-3.42-5.6-4.42-6.73-5.4-6.1,3.15-13.36,11.73-10.01Z"/>
  <path class="cls-4" d="M54.07,244.08c.43.45.73,11.99,1.7,12.28,2.66.8,1.42-2.39,1.69-3.87,1.28-7.15-.75-9.65,7.83-8.41-2.11,3.66-3.34,21.16-6.31,22.18-1.67.58-5.48.54-6.61-.95-.62-.82-4.31-17.09-4.84-19.76s6.3-1.73,6.54-1.47Z"/>
  <path class="cls-31" d="M66.41,244.07c2.13.35,12.99-.48,13.46,0,.27.28-.19,3.37,0,4.46-10.2-1.76-8.72,5.46,0,4.48v3.34c-4.51-.62-8.54.49-6.11,5.6,4.82.6,6.98-2.26,6.1,4.45-2.39-.2-13.46.97-13.46-1.67v-20.66Z"/>
  <path class="cls-41" d="M550.7,238.48c-.09-.72-1.55-2.01-1.12-3.34h35.87c-.09,2.2.12,4.48,0,6.69-3.8,1.84-32.91,1.63-34.06.33l-.69-3.68Z"/>
  <path class="cls-28" d="M32.78,244.07h13.45c1.85,5.88-6.55,3.85-6.73,5.03-2.36,6.66,6.41,2.56,6.74,4.47.85,4.81-3.69,2.24-6.74,2.78v5.6c.69.7,10.15-1.94,6.24,3.41-1.59,2.18-10,.6-12.96,1.05v-22.34Z"/>
  <path class="cls-15" d="M3.63,244.07c5.51.95,14.3-3.18,12.34,4.46h-5.62c-.76,5.88.67,4.49,5.62,4.48v3.34c-1.22,1.24-7.59-3.31-5.62,5.59h5.62c1.96,7.64-6.83,3.51-12.34,4.46v-22.34Z"/>
  <path class="cls-36" d="M541.72,280.93c-.9,2.76-4.83,20.47-5.75,21.07-1.33.86-10.46.22-11.91-1.23-3.36-3.36-.68-12.75,3.88-14.03,2.15-.6,5.65.33,7.14-.7,2.37-1.65-1.76-6.95,6.64-5.1Z"/>
  <path class="cls-8" d="M489.04,289.86c1.58,1.29.81,6.99-1.12,7.82-3.49,7.93-10.75,2.87-11.2,3.34-1.2,1.26,1.09,7.53-5.61,5.59-.12-1.1.12-2.26,0-3.35.39-5.92,1.71-11.43,3.96-16.53l1.65-.22c6.76.88,6.68-2.21,12.33,3.35Z"/>
  <path class="cls-20" d="M592.17,201.63c-.14,2.13.85,5.65-1.84,6.55-5.81,1.94-20.43-1.12-27.31.15l-1.09-7.69c9.84-.01,19.67-.07,29.49-.19l.74,1.18Z"/>
  <path class="cls-16" d="M578.72,286.51c7,.38,4.38,1.07,6.17,7.83,2.39-3.93,2.36-8.99,8.4-7.82-1.66,5.31-9.16,22.81-16.03,21.08-3.04-.77-2.58-4.75-3.17-5.28-1.02-.93-6.35.92-9.94-1.28,1.05-3.16,10.79-3.77,11.21,0,4.68-1.36,3.31-9.01,2.18-13.63l1.19-.89Z"/>
  <path class="cls-21" d="M521.55,295.45h-8.97c-1.14,4.94,6.48-.25,7.84,1.12,3.94,3.96-11.08,8.97-13.26,2.61-4.77-13.93,16.68-19.08,14.39-3.72Z"/>
  <path class="cls-6" d="M491.28,290.97c4.14-8.87,18.37-4.33,12.96,3.42-1.97,2.83-9.3-1.41-8.47,3.27,1.02.31,10.43-3.05,8.95.55-1.92,4.69-13.7,6.1-14.56-.54-1.66-.89-.85-6.55,1.12-6.7Z"/>
  <polygon class="cls-22" points="24.93 244.07 24.93 260.82 30.54 260.81 30.54 266.41 18.2 266.4 18.2 244.07 24.93 244.07"/>
  <path class="cls-18" d="M575.36,286.51c4.42,1.09,4.76,13.47,0,14.52-3.36-.52-7.68.36-11.21,0-2.75-1.69-1.68-2.03-2.24-4.47,1.25-2.62,2.25-5.52,3-8.68l1.49-.25c2.7-.12,5.52-1.04,8.97-1.12Z"/>
  <path class="cls-10" d="M550.7,238.48c1.36,1.37.26,3.11,2.73,3.44,9.58,1.27,22.09-1.13,32.02-.09-.03.56-1.02,1.55-1.12,2.23-9.23,1.49-25.34-2.01-33.63,0-.16-1.83.23-3.77,0-5.58Z"/>
  <path class="cls-33" d="M592.17,199.39c.05.72.05,1.51,0,2.23h-29.15s0,6.7,0,6.7l-2.24-8.93c6.72,2.01,23.45-1.49,31.39,0Z"/>
  <path class="cls-42" d="M471.1,280.92c5.71,2.23,1.28,5.02,5.61,5.58l-5.61,16.75c-.26-2.22-1.13-3.17-1.12-3.35.09-1.67,2.92-3.09,1.8-6.73-1.41-4.61-6.4-2.62-6.28-6.67l7.84,1.11-2.24-6.7Z"/>
  <path class="cls-5" d="M578.72,286.51l2.24,16.75c-2.07.68-4.54-2.07-5.6-2.23.91-5.08,4.4-10.13,0-14.52,1.11-.03,2.26-.06,3.36,0Z"/>
  <path class="cls-35" d="M75.03,269.87c4.3-1.07,6.95,6.24,2.99,7.56-7.34,2.44-7.65-6.39-2.99-7.56Z"/>
  <path class="cls-2" d="M566.39,287.62c-3.92,6.54,4.28,1.27,6.72,2.79l-11.2,6.15c-.11-.49-.64-.92-1.12-1.12,1.23-2.5,2.39-6.22,3.36-8.93.58.03,1.72,1.14,2.24,1.12Z"/>
  <path class="cls-26" d="M591.74,298.89c4.84-1.54,6.62,4.18,3.87,6.11-4.87,3.4-8.18-4.73-3.87-6.11Z"/>
  <path class="cls-43" d="M481.19,257.47v1.12c-6.04.09-15.18,3.08-19.06-1.11,6.32-.22,12.74.27,19.06-.01Z"/>
  <path class="cls-44" d="M493.52,189.34v1.12c-2.28,0-21.31.5-21.31-.56,6.98-1.31,14.27-.16,21.31-.56Z"/>
  <path class="cls-34" d="M491.28,290.97c-1.05,2.24-1.44,4.23-1.12,6.7h-2.24c.99-2.25,1.2-5.35,1.12-7.82.46.45,1.62.68,2.24,1.12Z"/>
  <path class="cls-12" d="M532.75,297.68c-4.03,3.45-6.12-6.82-1.66-7.82,4.02-.9,2.09,7.45,1.66,7.82Z"/>
  <path class="cls-30" d="M483.43,290.98c1.83,1.87-1.81,9.4-4.47,6.69-1.83-1.87,1.81-9.4,4.47-6.69Z"/>
</svg>