<?xml version="1.0" encoding="UTF-8"?>
<svg id="Layer_1" data-name="Layer 1" xmlns="http://www.w3.org/2000/svg" viewBox="0 0 598.91 601.53">
  <defs>
    <style>
      .cls-1 {
        fill: #f9f9fb;
      }

      .cls-2 {
        fill: #274191;
      }

      .cls-3 {
        fill: #cc5760;
      }

      .cls-4 {
        fill: #253e91;
      }

      .cls-5 {
        fill: #29317a;
      }

      .cls-6 {
        fill: #253e8f;
      }

      .cls-7 {
        fill: #2f3c85;
      }

      .cls-8 {
        fill: #344c96;
      }

      .cls-9 {
        fill: #c35863;
      }

      .cls-10 {
        fill: #a19da6;
      }

      .cls-11 {
        fill: #2f3a82;
      }

      .cls-12 {
        fill: #35468e;
      }

      .cls-13 {
        fill: #e9eaf3;
      }

      .cls-14 {
        fill: #253d8e;
      }

      .cls-15 {
        fill: #f1f1f7;
      }

      .cls-16 {
        fill: #f3f3f8;
      }

      .cls-17 {
        fill: #ee3f47;
      }

      .cls-18 {
        fill: #c65963;
      }

      .cls-19 {
        fill: #ec4148;
      }

      .cls-20 {
        fill: #bf5965;
      }

      .cls-21 {
        fill: #ba5264;
      }

      .cls-22 {
        fill: #253f91;
      }

      .cls-23 {
        fill: #364289;
      }

      .cls-24 {
        fill: #36448c;
      }

      .cls-25 {
        fill: #2a327b;
      }

      .cls-26 {
        fill: #f6f6fa;
      }

      .cls-27 {
        fill: #d54d57;
      }

      .cls-28 {
        fill: #9d4963;
      }

      .cls-29 {
        fill: #2d3881;
      }

      .cls-30 {
        fill: #424f90;
      }

      .cls-31 {
        fill: #d3535b;
      }

      .cls-32 {
        fill: #29327b;
      }

      .cls-33 {
        fill: #999baa;
      }

      .cls-34 {
        fill: #2c3780;
      }

      .cls-35 {
        fill: #29367f;
      }

      .cls-36 {
        fill: #a5a3a9;
      }

      .cls-37 {
        fill: #f4f4f9;
      }

      .cls-38 {
        fill: #c55863;
      }

      .cls-39 {
        fill: #c8525d;
      }

      .cls-40 {
        fill: #224194;
      }

      .cls-41 {
        fill: #2a327c;
      }

      .cls-42 {
        fill: #c45762;
      }

      .cls-43 {
        fill: #b75666;
      }

      .cls-44 {
        fill: #cd505b;
      }

      .cls-45 {
        fill: #f7f8fb;
      }

      .cls-46 {
        fill: #29327a;
      }
    </style>
  </defs>
  <path class="cls-36" d="M316.85,180.59c16.76,3.61,27.36,9.91,41.6,19.13,7.39,5.31,13.53,12.02,19.2,19.13,2.31,3.01,4.21,6.45,6.4,9.57l12.03,22.38c4.28,2.19,5.34,3.38.77,6.32-5.63,7-17.41,2.3-9.6-6.38-9.38,1.82-12.56-2.05-6.4-9.57-9.03-1.8-11.94-4.18-6.4-12.76-6.84-1.43-10.55-3.15-6.4-9.57-12.46-2.3-17.79-6.55-16-12.76-12.13-1.31-18.53-5.56-19.2-12.76-31.01-8.17-61.74-7.73-92.79,0-.92,7.19-7.32,11.44-19.2,12.76.87,4.98-3.39,8.16-12.8,9.57,4.48,9.54-.04,13.85-9.6,15.94,4.61,4.64,2.48,7.83-6.4,9.57,6.82,5.9,2.04,15.46-6.4,15.94l5.03,5.5c12.06-1.89,21.05-.53,26.97,4.07,2.79.91,2.75,1.97,0,3.19-3.02,7.54-21.35,20.1-28.8,15.94-2.52-3.26-3.58-8.57-3.2-15.94l-3.08,5.94c-22.54-3.4-34.97,3.77-53.29,15.38l-4.43-2.19c-7.43-4.48-5.51-9.52,5.75-15.14l.65-7.18c-23.86,2.15-48.27,3.39-73.23,3.71-9.43,7.33-16.91,16.68-22.44,28.04l-9.92,3.33c-.61,1.8-1.06,3.21-.89,3.24,8.9,1.52,25.91.76,33.87-3.22,24.99,4.16,50.56,4.17,76.72.02,33.9,3.83,68.39,3.96,103.46.4,17.98,4.08,39.9,5.17,56.69-.35,20.24,4.16,41.4,4.16,63.48.02,1.44,1.79,2.87,3.18,4.31,3.18,27.17,0,51.91-.95,78.99-3.16,9.84,4.64,21.01,4.65,33.51,0,.65,1.81,1.31,3.22,1.95,3.21,11.07-.05,13.97-.26,24.67-2.74,2.5-.58,4.62.53,6.4,2.57,4.94-2.61,6.24-1.83,3.2,3.19-2.5,1.57-.93,5.06-9.6,6.38-33.57-1.63-67.91-2.43-103.03-2.41l.64,2.41c-1.6,27.47-40.27,64.63-63.99,76.53l-38.4,12.76c-7.1.63-18.64.79-25.6,0-6.17-2.01-8.67-3.82-2.77-3.67l-32.43-9.09c-6.48-3.01-10.28-5.65-16-9.57-10.35-8.84-19.95-18.4-28.8-28.7l-12.8-25.51c-1.01-3.12-2.1-6.48-3.2-9.57l-5.73-2.71c-48.29-1.41-99.71-2.63-154.26-3.67-7.68-5.11-5.55-12.55,6.4-22.32l16-19.13c4.18-4.13,8.76-8.56,12.8-12.76,23.84-5.57,54.43-4.77,80.21-.46,11.02,14.51,29.65,8.65,44.58,3.65,9.95-34.45,26.11-55.13,57.6-73.34,26.11-11.69,56.05-18.64,83.19-6.38Z"/>
  <path class="cls-33" d="M387.24,250.75c4.29,5.39,2.27,5.42,9.6,6.38,1.96-4.49,7.56-4.33,9.6,0,3.66-.8,6.05-3.14,6.4-3.19h3.2l47.2,1.61c.27,3.45,3.48,6.71,6.48,8.45l38.28-.67c8.99,3.86,9.27,7.11.83,9.74-3.37,10.17-25.15,9.57-28.8,0-.59,2.84-1.68,2.72-3.2,0-4.12,8.1-30.56,4.67-35.2-3.19l-6.4-6.38-19.07,7.29c-5.81,7.17-11.18,8.99-16.13,5.47-2.29-1.26-3.36-5.52-3.2-12.76-6.08,8.62-29.12,9.07-38.4,6.38-3.57,1.96-6.77-.16-9.6-6.38-4.31,9.42-25.69,8.99-29.14,1.35l-15.66,1.84c-12.51-1.4-24.24-.34-35.2,3.19,3.9,8.47-2.92,12.47-9.6,6.38-9.35,3.14-19.76-1.02-26.42-5.84-8.59,3.39-13.65,3.21-15.18-.54v-3.19l.36-4.29c10.83-.43,20.31-2.19,28.44-5.27l8.92-6.82c28.8-5.77,80.29-6.6,107.02,3.24,10.34-7.22,18.62-8.15,24.85-2.8Z"/>
  <path class="cls-3" d="M470.43,253.94c-1.2,1.74-2.82,4.33-3.2,6.35,3.38,2.3,34.31-1.98,42.67.06,2.5.61,2.18,6.48,3.83,6.53,3.94.1,11.12-5.84,19.01-6.65,19.66-2.02,42.44,1.64,62.49.13-16.62,13.34-38.66,22.8-57.95,33.22-3.4,1.84-8.04,1.14-9.24,1.83-1.94-.95-1.9-2.01,0-3.19-1.86-7.45,10.5-13.83,16-9.57,37.7-19.68-2.55-15.24-22.4-12.76,1.4,9.43-8.49,11.77-12.8,3.19,1.78-9.66-4.9-6.14-11.05-6.38-7.17-.28-41.62,1.31-43.33-.02-7.36-5.71,8.32-5.6,6.37-9.52l-44.78-3.22c17.33-3.38,37.45-2.38,54.4,0Z"/>
  <path class="cls-44" d="M176.06,260.32c-.51,1.77.71,5.84.02,6.36-1.35,1.02-32.08,2.17-33.77,1.92-4.72-.7-7.24-9.72-15.91-11.4-20.93-4.06-52.81,2.83-75.12-.07.52-.54-1.73-5.78,2.02-6.51,13.69.84,27.65-.77,41.31,0,7.38.41,32.69,2.44,37.63,3.93,4.37,1.32,6.88,7.48,10.59,8.23,5.75,1.17,24.37-5.59,33.24-2.46Z"/>
  <path class="cls-17" d="M16.07,311.34l158.11-.13c3.8.03,1.21,4.65,1.88,6.51-29.6-11.93-143.58,6.57-163.19-6.38.96-1.83,2.03-1.78,3.2,0Z"/>
  <path class="cls-18" d="M316.85,180.59c-30.13-6.48-54.35-3.5-83.19,6.38,22.77-13.17,60.02-24.72,83.19-6.38Z"/>
  <path class="cls-19" d="M502.43,314.53c-30.2,4.59-70.93-3.39-102.39,0,.02-.29-3.96-.8-3.21-3.14,29.3.24,58.72-.46,88.05-.1,5.41.07,14.22-2.04,17.55,3.24Z"/>
  <path class="cls-28" d="M412.84,253.94c1.22-.18,4.62-2.82,10.87-3.4,15.24-1.42,32.74,1.47,48.32.19,4.54,1.71-1.49,3.06-1.59,3.2h-57.6Z"/>
  <path class="cls-9" d="M220.85,381.49c-17.11-11.72-17.18-11.41-28.8-28.7,5.39,7.83,24.15,17.71,28.8,28.7Z"/>
  <path class="cls-20" d="M384.04,228.43c3.34,4.75,12.66,20.87,13.73,21.62,3.37,2.34,11-2.28,8.67,7.08-2.11.46-7.21.31-9.6,0l-12.8-28.7Z"/>
  <path class="cls-43" d="M336.04,391.06c-13.71,6.88-21.9,11.29-38.4,12.76,6.96-9.27,26.77-9.18,38.4-12.76Z"/>
  <path class="cls-31" d="M528.03,292.2v3.19c-3.09,1.75-10.4,9.24-16,12.76l-3.2-3.19c-3.5-8.19,12.69-18.97,19.2-12.76Z"/>
  <path class="cls-39" d="M22.47,289.01c-.42,9.87-14.5,12.7-6.4,22.32h-3.2c-12.48-8.24,2.64-17.56,9.6-25.51,1.72.96,1.68,2.03,0,3.19Z"/>
  <path class="cls-38" d="M236.85,391.06c5.68,2.89,33.73,5.41,35.18,6.44.63.45-.2,4.52.01,6.31-13.74-1.56-23.82-7.47-35.2-12.76Z"/>
  <path class="cls-42" d="M192.06,352.79c-8.51-12.67-7.78-9.93-12.8-25.51,8.01,5.07,9.04,20.05,12.8,25.51Z"/>
  <path class="cls-21" d="M377.64,218.86l-19.2-19.13c15.18,9.84,9.68,6.77,19.2,19.13Z"/>
  <path class="cls-27" d="M22.47,289.01v-3.19c5.89-6.72,10.17-10.18,16-15.94-.89,8.74-9.11,14.54-16,19.13Z"/>
  <path class="cls-35" d="M547.23,269.88c2.57-3.3,17.56-1.75,17.19.92l-20.39,11.84c-4.96,3.13-10.89,6.54-16,9.57-8.89,5.26-11.78,7.72-19.2,12.76-4.26,2.89-9.18,3.36-14.2,3.33l-473.75-.13c-7.46-7.63,4.46-5.96,4.79-6.39,5.87-5.87,13.66-7.82,23.36-5.86,13.8-31.83,62.11-21.94,27.84,2.67,21.22,5.85,41.82-.21,60.41-11.37,9.64-3.92,20.62-2.65,22.98,8.77,7.82-3.14,13.08-2.28,15.79,2.6l11.76-5.52c17.22,5.22,34.63,6,52.24,2.33,4.14-3.04,5.71-1.29,3.2,3.19,7.25-2.81,15.39-3.75,24.4-2.81,1.36-6.76,5.07-12.99,11.13-18.68,8.17-6.75,26.93-5.58,38.06-4.01l2.19,13.46c-8.57,17.2,15.05,9.37,24.06,4.06,16.24-15.26,38.94-30.48,27.38,5.22,11.51-2.51,21.36-2.64,29.56-.41,2.27.93,2.22,1.99,0,3.19l1.63,1.65c15.01-8.97,29.65-13.5,43.92-13.59,12.71,16.59,20.8,12.23,24.24-13.09l7.01-.47c1.07.02,2.13-.03,3.2,0,8.88,2.37,11.86,10.17,8.96,23.4,18.87-12.63,34.83-23.1,58.24-26.58Z"/>
  <path class="cls-41" d="M185.66,317.71c-2.83-3.62-.03-5.28,8.41-4.98l189.18-.03c6.51-.36,7.01,2.81,3.99,8.19-1.17,3.62-1.47,5.51-3.2,9.57l-7.1,6.37-179.7-1.57-8.39-4.8c-2.27-5.22-1.97-8.42-3.2-12.76Z"/>
  <path class="cls-32" d="M380.84,241.18c1.72,2.67,4.73,7.47,6.4,9.57-6.57.79-20.93,8.38-24.64,8.97-3.33.53-8.41-5.39-15.18-5.98-33.14-2.9-68.8,2.12-100.96,3.39-18.24,4.78-44.31,10.17-60.8,0,2.38-9.43,2.59-8.44,6.4-15.94l7.01-4.79,173.5-1.57c3.19.73,5.95,2.85,8.28,6.36Z"/>
  <path class="cls-45" d="M131.26,266.69c1.14.61,2.12,1.3,2.55,2.23.77,1.68-20.62,26.71-24.95,23.28.57,13.18-22.36,8.51-32,6.38-.73-6.55,7.65-9.28,6.38-15.93-16.21-8.38-27.53,18.34-31.03,19.17-7.25,1.73-18.52-1.23-26.55-.06,7.35-9.6,18.17-33.8,31.05-37.61,9.87-2.92,35.04-.59,47.31-.67,12.61-.08,13.63-8.15,27.23,3.2Z"/>
  <path class="cls-5" d="M377.64,343.23c-2.3,3.76-3.57,5.95-6.4,9.57l-12.56,6.38h-139.39c-6.64.64-12.27-2.85-17.64-6.38-3.68-4.89-4.13-8.74-6.4-12.76-.33-2.89.49-4.77,3.03-4.76l175.65,1.54,3.7,6.41Z"/>
  <path class="cls-46" d="M368.04,218.86c2.29,2.67,4.32,6.51,6.4,9.57-.22,2.52-1.07,6.32-2.85,6.4-54.35,2.51-114.66,2.55-169.21,1.53-2.21-.04-3.38-2.26-3.93-4.75,3.25-5.15,4.49-10.24,9.6-15.94,3.93-2.04,8.31-3.88,12.73-4.66,17.94-3.14,110.63-1.66,129.67,1.29,6.22.96,12.14,3.45,17.59,6.55Z"/>
  <path class="cls-14" d="M371.24,352.79c-5.87,7.5-8.99,10-16,15.94l-13.98,4.78c-20.35,3.25-82.55,2.05-104.44,0-6.68-.63-12.98-2.19-19.16-4.78-7.09-5.83-10.28-8.35-16-15.94h169.59Z"/>
  <path class="cls-6" d="M220.85,206.1c39.06-10.34,92.06-10.3,131.19,0,6.75,5.18,7.96,3.38,16,12.76l-159.99-3.19c6.91-7.72,8.06-5.91,12.8-9.57Z"/>
  <path class="cls-22" d="M384.04,330.47c-2.56,6.01-2.9,7.02-6.4,12.76l-182.39-3.19c-1.71-3.02-4.43-5.06-6.4-9.57h195.18Z"/>
  <path class="cls-4" d="M380.84,241.18h-188.78c2.92-5.74,4.37-6.35,6.4-9.57l175.99-3.19c3.81,5.6,4.59,9.94,6.4,12.76Z"/>
  <path class="cls-25" d="M355.24,368.74c-5.35,4.54-6.28,5.67-12.8,9.57-34.31,9.76-74.36,9.32-108.79,0-6.56-3.68-9.11-3.9-16-9.57h137.59Z"/>
  <path class="cls-26" d="M185.66,269.88c3.13,8.81-1.06,18.29-6.4,25.51,1.82,1.54.76,2.6-3.2,3.19-2.97-.01-11.36,5.31-20.67,3.4-3.87-.79,4.69-15.88-17.89-8.33-21.41,7.16-26.88,10.61-52.68,8.17-3.64-.34-7.4,1.65-7.95-3.24,12.38-1.37,24.71,5.03,32-6.38,7.74-4.56,13.07-5.62,16-3.19,7.44-4.57,20.3-16.44,27.98-18.35,4.98-1.24,29.06-2.07,32.82-.78Z"/>
  <path class="cls-25" d="M240.05,193.35c30.41-7.83,62.36-8.33,92.79,0,10.44,5.13,10.85,6.35,19.2,12.76h-131.19c8.32-6.43,8.41-7.76,19.2-12.76Z"/>
  <path class="cls-15" d="M217.65,269.88c10.09-1.31,36.65-3.18,41.6,6.38,7.42,4.84,5.61,6.99-3.2,6.38-6.87,3.5-11.12,7.98-12.73,13.43l-3.27-.68c-19.28,13.58-43.97,3.27-63.99,3.19,1.03-1.08,1.99-2.3,3.2-3.19,2.79-7.67,5.99-10.86,9.6-9.57,9.06-8.16,16.11-14.3,28.8-15.94Z"/>
  <path class="cls-22" d="M342.44,378.3c-39.23,23.47-70.38,21.56-108.79,0h108.79Z"/>
  <path class="cls-2" d="M332.84,193.35h-92.79c34.85-16.13,58.38-16.91,92.79,0Z"/>
  <path class="cls-40" d="M185.66,317.71c-.12-.42-4.75-1.57-3.19-6.36l206.36-.04c5.63,2.95-1.01,7.79-1.59,9.58,1.78-9.66-4.89-6.14-11.05-6.38-56.23-2.22-116.43-.65-172.98-.05-5.41.06-14.23-2.04-17.55,3.24Z"/>
  <path class="cls-8" d="M246.45,257.13l3.17,9.56c-11.27-7.94-22.68-.64-31.97,0-12.57.87-22.84,3.72-35.2-.02-2.01-4.85,2.79-7.89,3.21-9.54,20.18-.58,40.63.8,60.8,0Z"/>
  <path class="cls-23" d="M124.86,289.01c-4.88,3-10.72,4.55-14.42,9.56l-1.58-6.37c15.58-8.79-.36-10.09.01-11.14,2-5.67,20.35-3.64,22.39-14.37,1.79,1.49,5.02,2.13,6.34,4.78-4.88,5.49-12.43,9.44-12.74,17.55Z"/>
  <path class="cls-12" d="M188.86,285.83c-3.25,2.93-4.43,5.78-9.6,9.57l6.4-25.51c5.69,1.95,2.71,10.77,3.2,15.94Z"/>
  <path class="cls-1" d="M348.84,263.5l9.6,6.38c16.34-10.68,22.21-4.22,38.4-6.38,6.96,1.84-7.29,21.99-9.12,22.16-.93.08,9.94-15.91,12.32-9.4,4.1-3.23,11.72-11.1,15.07-12.12,6.48-1.98,13.58-.05,20.13-.64,1.39,1.93,2.41,3.49,2.15,3.74-9.99,9.76-25.82,21.28-37.35,28.14-12.69,7.06-23.98,7.4-38.38,6.36l8-25.48c-21.54,18.32-30.71,31.35-62.4,25.48,3.18-9.5,6.29-19.24,9.58-28.68.12-3.82-4.15-5.95-12.8-6.38,12.22-7.18,30.68-1.4,44.8-3.19Z"/>
  <path class="cls-37" d="M476.83,273.07c-6.25,6.27-2.47,25.25-11.63,28.26-3.14,1.03-18.97,1.25-20.17.07-1.4-1.38,1.62-8.67-1.85-9.36-15.59-3.12-28.33,15.8-46.34,9.7l3.2-3.16c12.1-11.4,24.84-22.09,38.31-31.81l3.29,3.11c12.11-2.85,26.93,3,35.2,3.19Z"/>
  <path class="cls-16" d="M508.83,273.07c5.19-.22,10.81-3.16,12.8-3.19,9.12-2.59,17.66-2.59,25.6,0-9.18,8.53-21.74,11.13-32.46,17.08-13.57,7.53-16.82,20.21-37.93,14.78,8.57-9.47,7.29-17.26,3.2-28.67,6.27.17,22.06.28,28.8,0Z"/>
  <path class="cls-13" d="M316.85,273.07l-31.98,3.21c-3.37,13.46,17.03.67,19.17,9.52-11.97.39-26.37-3.86-31.98,9.57,6.64,1.59,21.8-5.04,19.18,6.39-13.63-1.99-37.17,4.3-47.98-3.17-1.58-10.3,2.74-13.69,12.8-15.94,1.98-2.39,2.59-5.7,3.2-6.38.38-.43,6.96-4.52,9.6-6.38,4.5-4.84,48.84-3.14,49.18-.66.16,1.21-.4,2.51-1.18,3.84Z"/>
  <path class="cls-7" d="M435.24,263.5c3.15-.28,7.84-4.98,12.8-3.16l-6.4,9.53c-7.99,1.88-31.49,24.65-41.6,28.7v-3.19l35.2-31.89Z"/>
  <path class="cls-11" d="M304.05,266.69c4.94.76,10.86-.56,15.98.02,1.77,5.75-2.98,5.79-3.18,6.36l-1.61-3.16-46.38-.03c1.65-1.16.83-5.14,7.96-6.37,10.39-1.78,17.95,1.75,27.24,3.18Z"/>
  <path class="cls-30" d="M348.84,263.5c.41-.05,3.01-4.5,6.37-3.2l3.23,9.58c-5.31,3.47-12.23,13.25-19.17,15.94l9.57-22.32Z"/>
  <path class="cls-24" d="M396.84,263.5c.35-.05,2.12-4.65,6.38-3.18l-3.18,15.93c-1.87,1.47-12.25,10.18-12.77,9.57l9.57-22.32Z"/>
  <path class="cls-10" d="M521.63,269.88c16.02-7.25,37.14-1.34,54.38-3.16l-31.98,15.91c3.57-2.25,7.45-10.83,15.98-9.61v-3.12c-4.22-.2-8.53.15-12.78-.03-8.44-.36-17.14-.12-25.6,0Z"/>
  <path class="cls-34" d="M240.05,295.39c-.02-.22,3.53-1.05,3.24-3.13l-35.22,3.11c-4.05-3.48,20.27-28.95,28.78-22.28l-3.19,9.51,22.39.02c-4.28,5.17-6.1,12.7-12.8,15.94-.79-.55-2.94-.04-3.2-3.19Z"/>
  <path class="cls-29" d="M99.26,266.72c-4.46,11.16-15.25,10.19-25.6,9.5,4.46-11.16,15.25-10.19,25.6-9.5Z"/>
</svg>