<?xml version="1.0" encoding="UTF-8"?>
<svg id="Layer_1" data-name="Layer 1" xmlns="http://www.w3.org/2000/svg" viewBox="0 0 598.91 601.53">
  <defs>
    <style>
      .cls-1 {
        fill: #c02226;
      }

      .cls-2 {
        fill: #d3bcc3;
      }

      .cls-3 {
        fill: #c6262a;
      }

      .cls-4 {
        fill: #d7b1b6;
      }

      .cls-5 {
        fill: #e7272a;
      }

      .cls-6 {
        fill: #010202;
      }

      .cls-7 {
        fill: #fadddd;
      }

      .cls-8 {
        fill: #f9cccb;
      }

      .cls-9 {
        fill: #dab9bf;
      }

      .cls-10 {
        fill: #fcd7d7;
      }

      .cls-11 {
        fill: #d3c2c9;
      }

      .cls-12 {
        fill: #f7f6f6;
      }

      .cls-13 {
        fill: #fad9d8;
      }

      .cls-14 {
        fill: #f2c2c2;
      }

      .cls-15 {
        fill: #e72128;
      }

      .cls-16 {
        fill: #d62429;
      }

      .cls-17 {
        fill: #d6c1c8;
      }

      .cls-18 {
        fill: #c9cad2;
      }

      .cls-19 {
        fill: #f7aeb4;
      }

      .cls-20 {
        fill: #e02227;
      }

      .cls-21 {
        fill: #e92127;
      }

      .cls-22 {
        fill: #d3c1c8;
      }

      .cls-23 {
        fill: #f5d6d7;
      }

      .cls-24 {
        fill: #d82227;
      }

      .cls-25 {
        fill: #fbe1e1;
      }

      .cls-26 {
        fill: #fef9f8;
      }

      .cls-27 {
        fill: #d9c4c9;
      }

      .cls-28 {
        fill: #ed242a;
      }

      .cls-29 {
        fill: #f4eeef;
      }

      .cls-30 {
        fill: #db2528;
      }

      .cls-31 {
        fill: #cbced5;
      }

      .cls-32 {
        fill: #9e1f21;
      }

      .cls-33 {
        fill: #ed202c;
      }

      .cls-34 {
        fill: #c12528;
      }

      .cls-35 {
        fill: #ea2328;
      }

      .cls-36 {
        fill: #d9b6bc;
      }

      .cls-37 {
        fill: #fae2e1;
      }

      .cls-38 {
        fill: #ed212d;
      }

      .cls-39 {
        fill: #d3c8d0;
      }

      .cls-40 {
        fill: #c52529;
      }

      .cls-41 {
        fill: #d1d0d0;
      }

      .cls-42 {
        fill: #f6bfbf;
      }

      .cls-43 {
        fill: #b62225;
      }

      .cls-44 {
        fill: #d2c1c9;
      }

      .cls-45 {
        fill: #d5c0c7;
      }

      .cls-46 {
        fill: #ef404d;
      }

      .cls-47 {
        fill: #971d20;
      }

      .cls-48 {
        fill: #f6d6d6;
      }

      .cls-49 {
        fill: #ee212d;
      }

      .cls-50 {
        fill: #d2cbd3;
      }

      .cls-51 {
        fill: #d3ccd3;
      }

      .cls-52 {
        fill: #d2c2ca;
      }

      .cls-53 {
        fill: #a62225;
      }
    </style>
  </defs>
  <path class="cls-6" d="M216.16,431.11c-3.25,4.94-24.01,16.74-29.02,17.08-4.31.29-16.28-10.03-17.85-14.74-49.7-26.58-103.62-37.48-159.35-44.48l37.99-14.68c114.4-29.13,232.92-39.1,351.05-36.79-8.45,38.97,42.59,37.77,63.35,19.98,6.05-5.19,12.15-19.73,14.47-20.77,10.71-4.75,42.71-.17,56.9-1.57,20.06-1.98,35.01-10.28,44.56-28.05,15.54,47.24-32.5,57.95-68.31,62.84-115.91,15.83-182.73,12.69-293.79,61.17Z"/>
  <path class="cls-33" d="M431.77,243.91c-5.25,11.14-8.82,23.84-14.06,35.1,1.26,8.94-3.89,22.36-14.06,25.74,2.52,2.58,6.42,3.36,11.72,2.34l3.95-19.24,5.42-1.82c1.7-4,16.11-32.12,17.9-32.63,20.19,7.07,22.72,8.45,14.91,27.95.25,6.7-1.85,13.81-6.28,21.32l-.75,6.76c2.05.66,2.02,1.45,0,2.34,2.45,7.18-20.71,6.34-20.49,5.12.34-1.91,3.99-.44-2.94,1.9-11.59-1.71-21.02,8.2-33.97,9.37-5.75.52-37.31.77-42.3.13-5.64-.71-8.72-4.82-13.87-4.99-9.82-.32-20.14,9.45-32.76,7.15-3.48-.64-6.32-4.6-9.06-4.22-3.59.5-8.62,6.42-16.95,6.69-7.95.26-15.84-2.33-19.84-9.46-4.61-9.15-4.62-18.11-.03-26.88l-6.04,16.53-5.64,1c-4.07,7.04-10.84,10.21-16.41,14.04-7.57.68-13.04-.88-16.41-4.68-6.11-3.2-3.52-6.76,2.34-9.36-4.8-5.37,2.46-17.54,9.37-18.72-2.13-2.45-5.26-2.45-9.37,0,4.46,6.71-2.82,17.25-9.37,21.06,5.9,2.95,2.64,7.13-2.34,9.36-3.15,7.1-25.42,4.52-28.12-2.34-2.05-.66-2.02-1.45,0-2.34-4.36-10.09,3.02-21.52,11.72-28.08,5.71-11.04,19.47-26.93,32.17-29.89,4.51-1.05,9.28.16,13.39-.67,17.32-3.48,34.82-13.31,27.1,16.51,18.99,3.85,23.29-17.37,41.56-20.51,12.03-2.06,13.91,2.75,20.84,3.45,4.32.44,21.63-4.02,24.3-1.64-1.11,9.17-7.92,15.64-11.71,23.39.43,7.57-1.21,15.35-4.89,23.36l3.87-3.61c1.34-7.52,4.8-12.54,10.39-15.07,3.44-6.37,17.58-23.56,23.61-26.73,8.51-4.47,24.76-2.34,27.58-4.06.98-.6,7.62-16.8,9.74-20.69,6.04,9.26,10.68,9.29,20.74,4.47l5.04,2.55Z"/>
  <path class="cls-33" d="M110.69,229.87c1.16.24,2.25.57,3.16,1.18,4.24,2.86-2.41.74-.89-.76,1.19-1.17,31.84-2.75,30.54,4.26,1.97.94,3.04,2.43,3.05,4.55-19.37,32.3,2.7,13.11,15.76-.59,3.28-6.61,7.17-9.49,11.65-8.65,3.23-2.27,7.84-2.71,13.85-1.32,7.72-2.14,14.04-1.7,18.96,1.32-7.2,18.37-22.65,30.98-42.18,35.12-.06,7.37,8.33,6.74,10.69,13.86,1.33,3.99,1.8,12.47,1.02,16.54,7.23,4.05-2.05,20.04-9.37,21.06,6.02,3.12,3.12,7.59-2.34,9.36l-2.9,5.38c-8.78,1.81-17.68,2.23-26.71,1.25-.46,4.29-2.3,6.76-5.54,7.41-.94-.67-1.58-1.8-2.34-2.34-3.29-2.7-4.25-9.12,0-11.7.11-.8-.17-1.65,0-2.34-1.88-9.08,2.03-17.66,11.72-25.74,2.05-7.39,5.05-15.14-3.75-20.81-15.77-10.15-14.86,8.09-19.68,18.47.08,9.95-3.52,19.77-11.72,25.74-2.36,4.78-6.54,11.44-9.37,16.38-3.72,3.06-9.26,3.65-16.63,1.77-8.33,2.15-14.5,1.56-18.52-1.77,1.8-3.73,2.15-8.68,4.69-14.04-2.81-7.72,3.25-15.88,9.37-21.06,11.94-24.56,26.99-47.09,37.5-72.54Z"/>
  <path class="cls-38" d="M570.04,276.67c8.96,6.9,8.03,16.83,2.34,25.74-2.91,4.49-3.05,5.19-7.03,9.36-6.4-1.32-4.01-4.37-3.14-2.35.98,2.27-22.01,4.63-22.64-2.33-5.39-3.49-3.9-6.34,2.34-7.02,1.46-9.64-2.82-7.72-9.37-4.68.85.77,1.59,1.58,1.98,2.53.22.54-4.06,8.04-5.1,9.7s-2.45,2.92-3.92,4.14c-4.85.93-9.54,2.49-14.06,4.68-.95-1.43-2.82-2.39-2.38-4.69-3.14,1.44-6.3,3.05-9.34,4.69-5.41.2-6.32-2.1-4.69-7.02-2.03-.8-2.03-1.58,0-2.34l2.44-7.27c9.12-6.63,18.46-12.79,28.02-18.47,2.74-2.77,8.79-5.55,10.49-9.43,3.33-7.59.83-16.4,7.19-25.57,8.17-11.77,33.72-15.9,27.39,1.58-5.25,14.5-18.44,11.88-.54,28.74Z"/>
  <path class="cls-49" d="M497.39,276.67c.02,11.68-3.11,19.48-9.37,23.4.44,4.7-.34,8.6-2.34,11.7-6.55,7.87-27.76,6.86-35.15,0v-2.34c-.9-6.61,5.07-21.25,11.72-23.4,2.23-4.8,15.98-34.39,17.85-34.97,3.75-1.17,19.34,8.96,20.98,11.57,1.55,2.46-2.4,10.78-3.68,14.05Z"/>
  <path class="cls-21" d="M204.44,325.81c2.16-5.46,5.67-7.85,9.37-2.34,6.48-.36,18.86-2.4,16.41,4.68-.88.61-1.62,3.29-3.78,4.33-8.49,4.07-28.17,7.45-37.35,7.09-4.32-.17-7.38-4.21-11.21-3.92-5.74.43-22.76,10.49-33.52,11.1s-9.43-2.98-14.91-6.9c.64-2.81-1.59-11.28,1.36-11.74,6.78-1.07,15.84.57,23.29,0,3.72-.28,7.26-2.06,10.51-2.31,1.66-5.94,8.17-7.75,11.72-2.34,5.66-.25,21.8,2.48,28.12,2.34Z"/>
  <path class="cls-15" d="M495.05,309.43c2.64,2.1,4.91,2.58,4.69,7.02-10.7,5.76-27.86,10.49-32.81,18.72-.98.53-1.95.94-2.91.91-4.13-.12-21.18-.97-21.77-2.06s-.88-2.28-1.1-3.53c-.18-3.51-2.5-1.32-6.97,6.54l-4.75-1.86c-4.76,1.15-8.25.6-9.37-4.68,2.26-2.13,7.55-6.02,8.26-7.01,1.5-2.06-1.17-3.77-1.23-4.69-.08-1.09-.19-4.52-.01-4.66,1.48-1.15,19.57-2.16,23.45-2.36,11.61-.6,23.58.85,35.15,0,.07-5.02,5.36-3.63,9.37-2.34Z"/>
  <path class="cls-18" d="M209.13,208.81c-21.53-2.39-43.13-2.85-64.8-1.4l-.82-3.28-1.17,2.33c-18.25-1.06-36.44-1.07-54.57-.04-.38,3.75-2.12,6.1-5.2,7.07-9.36-1.34-9.16-10.88-3.57-16.44,3.72-3.7,47.61-2.82,56.32-2.3,6.13.37,11.57,4.41,16.39,4.41,11.24,0,22.5-6.2,39.57-4.13,14.27,1.73,13.96,2.26,17.85,13.77Z"/>
  <path class="cls-35" d="M420.05,211.15c8.15.04,16.45-.6,24.88-1.91l3.24,4.25c-4.45,10.29-11.28,19.54-16.41,30.42-10.16,6.3-28.55,9.9-25.78-7.02,4.64-8.51,9.76-17.04,14.06-25.74Z"/>
  <path class="cls-5" d="M525.51,311.77c5.18-5.26,9.87-6.82,14.06-4.68,2.44-.59,24.77-.77,25.8,0,.38.29-.23,3.37-.02,4.68-12.5,13.08-30.53,21.78-48.63,12.26-5.8-3.05-3.7-5.21-5.27-7.58-.58-12.83,6.39-8.59,14.06-4.68Z"/>
  <path class="cls-32" d="M462.24,344.53c-4.06,5.83-3.87,8.4-12.46,12.13-12.5,5.44-44.98,7.95-43.79-9.79,4.6-6.25,17.86-11.26,21.09-2.34,2.74-5.64,5.21-8.08,9.37-2.34,3.8-7.34,25.34-6.84,25.78,2.34Z"/>
  <path class="cls-53" d="M209.13,208.81c.22.64-.15,1.54,0,2.34-9.79,5.2-28.85,5.04-39.84,2.34-1.35,4.5-3.44,4.47-4.69,0-17.91,3.41-38.93,5.89-56.25,0-3.28-3.49-2.42-6.01,1.77-7.86,13.22,1.53,24.35,1.03,33.38-1.5,14.12,2.2,11.93-1.23,22.45-2.15,14.81-1.3,30.24-1.25,43.17,6.83Z"/>
  <path class="cls-28" d="M527.86,239.23c-4.35,1.92-6.91,1.17-4.54-3.32l-11.87-1.36c-19.42-12.67,32.29-35.72,30.1-13.48-.84,8.59-7.64,13.38-13.7,18.16Z"/>
  <path class="cls-47" d="M143.51,204.13c1.38,6.75-3.36,4.47-7.77,5.03-3.19.4-5.99,1.52-9.57,1.76-5.11.34-12.62-5.82-17.81,2.58-.58,1.18-1.37,1.09-2.34,0-7.24-.06-16.75.96-23.44,0-.15-3.85-1.06-9.73,3.84-11.38,9.47-3.19,45.86.27,57.09,2.02Z"/>
  <path class="cls-20" d="M94.29,337.51c-3.75,6.53-4.16,11.54-11.72,16.38l-16.95,2.16c-7.97,1.23-12.48-1.05-13.52-6.84,2.51-4.63,4.8-7.08,7.03-11.7,9.76-3.42,25.65-4.32,35.15,0Z"/>
  <path class="cls-24" d="M150.54,220.51c4.52,6.21.52,13.7-7.03,14.04-5.47-1.04-30.88,1.45-32.83,0-.38-.29.22-3.37.02-4.68,1.43-3.46,1.94-7.94,2.34-11.7,9.02-2.33,29.23-4.25,37.5,2.34Z"/>
  <path class="cls-30" d="M211.47,218.17c-.32,4.68-3.15,7.78-4.69,11.7-9.25,2.55-24.97,6.12-32.81,0-6.87-2.51-5.12-10.12,2.34-9.36-.1-9.02,30.05-7.76,35.15-2.34Z"/>
  <path class="cls-50" d="M497.39,276.67v18.7c10.71-3.32,14.73-15.45,28.12-14.02-9.27,9.37-19.06,18.56-30.47,25.74-7.62,4.72-11.91,1.62-7.03-7.02,2.98-8.02,6.29-15.55,9.37-23.4Z"/>
  <path class="cls-16" d="M420.05,211.15c1.18-2.38.75-8.72,3.9-9.46,7.4-1.75,20.6,1.45,28.9.12.81,4.85-3.13,8.11-4.68,11.69-4.46.8-27.01,3.18-28.14,2.33-.39-.29.22-3.36.02-4.67Z"/>
  <path class="cls-31" d="M216.16,431.11c4.39,8.1-27.42,21-29.31,21.01-4.67.03-19.95-11.58-17.56-18.67,6.53,3.49,11.11,7.95,17.59,10.94,9.09-5.95,19.46-8.99,29.28-13.28Z"/>
  <path class="cls-43" d="M164.6,213.49c2.46,6.32-10.34,12.8-14.06,7.02-8.89,1.64-28.86.45-37.5-2.34-2.77-.9-5.28-2.27-7.03-4.68.78,0,1.56,0,2.34,0,19.07-.21,37.57-3.58,56.25,0Z"/>
  <path class="cls-3" d="M82.57,353.89c-10.98,7.03-24.67,8.7-37.48,11.69-1.4-7.19,4.36-11.48,7.01-16.37,9.75,4.78,22.28-.7,30.47,4.68Z"/>
  <path class="cls-34" d="M466.92,335.17c-1.42,2.37-1.09,4.19-4.69,9.36-5.11-2.49-19.16-2.76-25.78-2.34-6.89-2.79-.53-10.79,4.69-11.7,2.93,2.27,23.26-4.5,25.78,4.68Z"/>
  <path class="cls-11" d="M417.71,279.01c-.69,7.57-.55,7.71,7.03,7.02-1.8,4.23-2.28,15.37-4.64,19.5-1.71,2.99-3.94,1.07-4.74,1.56-5.81,2.03-9.72,1.25-11.72-2.34,2.24-7.85,10.14-17.31,14.06-25.74Z"/>
  <path class="cls-1" d="M209.13,211.15c.26,1.37,2.64,2.62,2.34,7.02-7.93,1.16-30.08-2.62-35.15,2.34-5.58,4.1-10.54-1.21-7.03-7.02,13.73-2.65,25.66-2.91,39.84-2.34Z"/>
  <path class="cls-44" d="M335.68,283.69c-1.39,9.05,1.91,8.66,9.37,4.68-5.55,10.27-3.24,26.18-21.08,23.39-1.47-1.34,9.94-24.44,11.71-28.07Z"/>
  <path class="cls-52" d="M246.62,314.11c5.13-8.87,3.47-26.44,18.74-23.39-3.46,11.15-9.08,20.33-7.02,32.75-4.33-7.7.7-11.12-11.72-9.36Z"/>
  <path class="cls-22" d="M176.32,321.13c-5.29-.12-8.42-1.68-9.37-4.68,2.08-6.29,8.67-17.39,9.37-21.06,2.26,5.48,8.52.16,11.72-2.34-4.31,8.33-7.21,19.63-11.72,28.08Z"/>
  <path class="cls-40" d="M420.05,330.49c4.09-.4,8.15.38,9.37,4.68,5.85,3.76,3.47,6.97-2.34,9.36-6.97.63-14.13-.76-21.09,2.34.43-6.37,2.75-3.66,4.63-6.38,5.53-7.99,4.6-5.45,9.43-10Z"/>
  <path class="cls-36" d="M457.55,281.35c-.56,4.97-.29,5.24,4.69,4.68-3.65,7.85-4.48,16.84-11.72,23.4-10-4.17,4.23-21.07,7.03-28.08Z"/>
  <path class="cls-51" d="M127.1,323.47c1.63-4.76-4.16-4.31-4.68-6.23-1.92-7.09,9.58-16.8,16.4-19.51-2.53,9.13-10.06,18.86-11.72,25.74Z"/>
  <path class="cls-39" d="M103.66,321.13c4.08-8.24,7.8-17.31,11.72-25.74,4.57,10.11-.29,23.66-11.72,25.74Z"/>
  <path class="cls-17" d="M73.2,302.41c-3.29,6.78-6.07,14.09-9.37,21.06-10.08-2.89,1.3-20.53,9.37-21.06Z"/>
  <path class="cls-27" d="M572.39,302.41c3.42-9.87.6-16.38-2.34-25.74,2.81,2.65,8.18,1.24,9.47,8.25,1.78,9.67-3.22,11.46-7.12,17.49Z"/>
  <path class="cls-46" d="M511.45,234.55c6.62.26,13.4-2.51,16.41,4.68-4.92,3.88-5.21,9.73-16.4,7l11.72-9.31c-5.19.55-7.29.53-11.72-2.36Z"/>
  <path class="cls-19" d="M127.1,325.81c-.51,3.78.35,7.88,0,11.7-1.32-.93-3.88,2.77-4.83-3.44-.84-5.51-.87-9.78,4.83-8.26Z"/>
  <path class="cls-12" d="M234.89,374.98c.56,3.36-4.07,3.17-6.52,3.96-14.33,4.59-30.36,7.19-45.05,11.2-6.99,1.91-16.02,7.81-22.44,8.09-7.33.31-25.82-7.7-33.77-10.42,34.95-7.76,72.15-24.22,107.78-12.83Z"/>
  <path class="cls-41" d="M352.08,356.26c1.19,1.23.52,6.29-3.46,4.66-20.16-2.17-41.09,9.27-59.8-.04l22.27-4.63c7.71,2.18,37.1-4,40.98.01Z"/>
  <path class="cls-37" d="M295.84,288.37c4.36-9.15,2.02-20.12,16.39-18.71,1.22,1.2-5.47,19.1-6.9,21.87-1.11,2.14-4.69,1.3-4.8,1.52-4.65,8.49-8.27,3.31-4.69-4.68Z"/>
  <path class="cls-9" d="M295.84,288.37c-.56,4.97-.29,5.24,4.69,4.68-4.19,8.05-4.58,24.49-16.39,25.73-3.55-4.1,9.34-25.45,11.71-30.41Z"/>
  <path class="cls-2" d="M225.53,295.39c-2.43,6.18-6.93,12.72-9.37,18.72-2.89,5.23-5.49,8.5-9.37,2.34,2.53-7.67,6.09-13.86,9.37-21.06,3.64-5.57,7.11-7.1,9.37,0Z"/>
  <path class="cls-7" d="M375.52,288.37c.7-1.07,5.62-26.64,14.05-18.71,1.62,1.52-7.86,17.79-9.36,21.05-5.51,8.07-9.21,6.68-4.69-2.34Z"/>
  <path class="cls-4" d="M375.52,288.37c-.4,6.25-.1,5.32,4.69,2.34-4.35,9.42-5.01,9.84-9.37,16.38-3.27,5.71-5.96,3.92-4.69-2.34,4.47-11.98,5.26-10.07,9.37-16.38Z"/>
  <path class="cls-13" d="M225.53,295.39h-9.37c2.57-5.64,4.96-12.78,7.06-18.71,10.58,6.4,5.32,11.08,2.32,18.71Z"/>
  <path class="cls-23" d="M166.94,316.45c5.9.29,10.84-2.34,9.37,4.68v2.34c-2.1.09-6.13,1.91-11.72,2.34-.52-3.65,1.34-6.32,2.34-9.36Z"/>
  <path class="cls-48" d="M216.16,314.11c-1.18,2.9-1.37,6.36-2.34,9.36-1.83.1-5.14,2.24-9.37,2.34-.52-3.65,1.34-6.32,2.34-9.36l9.37-2.34Z"/>
  <path class="cls-42" d="M370.84,307.09c-1.03,1.55-1.27,8.35-2.57,9.16-13.12,8.19-2.98-9.19-2.12-11.5l4.69,2.34Z"/>
  <path class="cls-29" d="M415.36,307.09c-3.09,1.92-6.37,5.66-10.5,4.69-5.32-1.26-1.78-5.07-1.22-7.03,3.75.14,9.72-1.45,11.72,2.34Z"/>
  <path class="cls-10" d="M251.3,276.66h-7.01s0-9.34,0-9.34h3.47c3.68,2.47,4.09,5.02,3.54,9.34Z"/>
  <path class="cls-26" d="M169.28,213.49l7.03,7.02c-2.44,2.38-1.47,7.76-2.34,9.36-6.87,12.61-23.64,30.6-38.67,32.79-3.23.47-4.5-.04-3.48-3.49,1.48-5,8.74-17.97,11.68-24.62,2.11-4.77,4.88-9.29,7.03-14.04,2.25-.42,10.18-6.04,14.06-7.02,1.33-.33,3.24.28,4.69,0Z"/>
  <path class="cls-25" d="M532.54,295.39c6.88-8.02,12.22-6.2,9.37,4.68-.7,2.38-.99,4.86-2.34,7.02-6.37,1.54-4.25,9.68-14.06,4.68-3.16-10.94,4.06-12.06,7.03-16.38Z"/>
  <path class="cls-45" d="M532.54,295.39c2.56-3.72,3.61-12.45,11.71-11.69,1.58,6.92-.77,11.04-2.33,16.37,1.46-7.02-3.47-4.39-9.37-4.68Z"/>
  <path class="cls-8" d="M488.02,300.07c-2.15,10.98,4.63,5.54,7.03,7.02.37.23-.37,2.05,0,2.34-3.07.44-6.39,2.12-9.37,2.34-5.31-5.98,1.27-8.8,2.34-11.7Z"/>
  <path class="cls-14" d="M441.14,330.49l-4.69,11.7c-.97.06-3.93,1.85-9.37,2.34,1.11-2.45,1.15-7.56,2.34-9.36,1.32-2,8.85-5.89,10.56-9.35,2.44-.23.57,4.21,1.16,4.67Z"/>
</svg>