<?xml version="1.0" encoding="UTF-8"?>
<svg id="Layer_1" data-name="Layer 1" xmlns="http://www.w3.org/2000/svg" viewBox="0 0 598.91 601.53">
  <defs>
    <style>
      .cls-1 {
        fill: #e9536d;
      }

      .cls-2 {
        fill: #e12547;
      }

      .cls-3 {
        fill: #e5304f;
      }

      .cls-4 {
        fill: #ea5370;
      }

      .cls-5 {
        fill: #ea4c6a;
      }

      .cls-6 {
        fill: #e52c4d;
      }

      .cls-7 {
        fill: #e4274c;
      }

      .cls-8 {
        fill: #e63956;
      }

      .cls-9 {
        fill: #e31e45;
      }

      .cls-10 {
        fill: #e94a66;
      }

      .cls-11 {
        fill: #e85070;
      }

      .cls-12 {
        fill: #e63e58;
      }

      .cls-13 {
        fill: #e72e55;
      }

      .cls-14 {
        fill: #fdf2f3;
      }

      .cls-15 {
        fill: #e4254a;
      }

      .cls-16 {
        fill: #f7ced7;
      }

      .cls-17 {
        fill: #fce8ea;
      }

      .cls-18 {
        fill: #f9e4e8;
      }

      .cls-19 {
        fill: #fbeef0;
      }

      .cls-20 {
        fill: #e94a68;
      }

      .cls-21 {
        fill: #fff;
      }

      .cls-22 {
        fill: #e12045;
      }

      .cls-23 {
        fill: #fae2e5;
      }

      .cls-24 {
        fill: #fffefe;
      }

      .cls-25 {
        fill: #f8dce2;
      }

      .cls-26 {
        fill: #e12446;
      }

      .cls-27 {
        fill: #eb6178;
      }

      .cls-28 {
        fill: #f3b3be;
      }

      .cls-29 {
        fill: #e63c55;
      }

      .cls-30 {
        fill: #f5bec7;
      }

      .cls-31 {
        fill: #fae2e6;
      }

      .cls-32 {
        fill: #df1e42;
      }

      .cls-33 {
        fill: #e42a4d;
      }

      .cls-34 {
        fill: #e12044;
      }

      .cls-35 {
        fill: #e53250;
      }

      .cls-36 {
        fill: #fadfe3;
      }

      .cls-37 {
        fill: #fbe4e7;
      }

      .cls-38 {
        fill: #ec6d83;
      }

      .cls-39 {
        fill: #e6264e;
      }

      .cls-40 {
        fill: #e5294e;
      }

      .cls-41 {
        fill: #e4224c;
      }

      .cls-42 {
        fill: #fdf4f6;
      }

      .cls-43 {
        fill: #eb687c;
      }

      .cls-44 {
        fill: #fdf2f4;
      }

      .cls-45 {
        fill: #fbeeef;
      }

      .cls-46 {
        fill: #e22044;
      }
    </style>
  </defs>
  <path class="cls-32" d="M523.5,185.17c1.25.38,2.65,2.73,2.62,4.25l-54.45,178.87c4.83,22.93,5.83,50.47,12.01,72.73,2.54,9.16,9.37,14.27,5.87,24.95-1.19,3.63-5.7,5.67-6.08,9.29-.68,6.49,10.81,27.36,9.94,32.34-.6,3.49-8.9,3.03-11.64,1.66-6.28-3.14-9.7-35.43-14.62-36.43-1.05-.21-5.67,1.31-5.89,2.62-.87,5.11,11.1,32.17,8.63,34.64-4.23-.56-10.5,1.07-14.28-.23-2.45-.85-2.32-4.74-3.7-4.98-4.33-.76-6,4.4-10.14,5.2-8.42,1.62-20.8-1.11-29.75.02-.99-3.93.76-2.8,2.14-3.89,5.38-4.21,36.32-21.25,35.29-25.85-.2-.89-2.66-2.89-4.08-2.52-48.98,11.24-99.54,13.96-149.68,13.48-6.28,6,2.08,18.34-8.78,18.93-11.94.65-6.68-10.37-7.68-18.87-14.62-3.35-4.35,16.17-11.29,18.49-16.52,5.51-8.28-11.12-9.1-17.59-7.61-4.89-8.82,14.08-13.62,16.99-2.9,1.76-16.81,1.61-17-1.71l8.47-17.86-68.72-10.08c-1.8.93-2.84,1.92-2.84,4.12,0,5.5,25.94,16.93,31.27,21.54,1.75,1.52,3.58,1.64,2.83,4.81-7.98-1-18.84,1.43-26.35-.02-4.14-.8-5.81-5.96-10.14-5.2-1.38.24-1.25,4.15-3.69,4.98-1.57.54-10.5.63-10.88.25-2.77-2.77,6.28-27.93,5.26-32.92-.47-2.32-6.2-4.73-8.64,1.46-5.77,14.61.99,36.32-22.15,31.46-2.3-2.31,4.91-29.18,4.34-34.97-.49-4.97-8.18-8.15-7.37-16.52.54-5.59,5.43-10.2,6.99-15.18,3.18-10.15,4.31-22.31,7.59-32.66-19.71-22.95-59.89-57.52-57.28-90.17,10.08-34.04,11.49-73.22,20.72-106.88,6.38-23.26,22.74-31.98,46.32-32.12,11.43-.07,31.71,9.67,28.07-10.05-1.95-2.08-18.45,9.27-12.02-4.37,37.57-31.11,77.49-59,117.68-86.56,1.88-1.29,6.37-2.48,6.58-2.77,2.2-2.98-10.7-15.53.37-29.39,15.91-19.94,49.77,5.87,30.55,26.97,21.43,14.61,43.75,28.56,65.06,43.69,18.34,13.02,44.09,30.41,59.94,45.57,14.4,13.77-2.02,7.84-2.59,8.55-.9,1.13-.14,11.9,2.54,11.9h83.41Z"/>
  <path class="cls-7" d="M400.1,566.24v-25.52h8.51v56.14c-2.39-.46-8.86.85-10.05-.17-1.25-1.06-6-27.92-6.99-32.15-.53-.54-3.39,2.2-3.39,2.55v29.77c0,.34-6.81.34-6.81,0v-56.14c18.37-4.34,9.93,17.01,18.72,25.52Z"/>
  <path class="cls-7" d="M88.6,540.73c17.12-.11,29-3.98,27.33,17.94-.38,4.94-3.52,9.6-3.45,11.84.07,1.97,2.94,5.26,3.47,10.08s-.63,11.07-.11,16.29h-8.53c-.76-6.63,3.29-20.69-5.93-22.15-3.91-.62-2.37,1.66-2.57,4.25-.46,5.9.33,12,0,17.9h-10.22v-56.15Z"/>
  <path class="cls-15" d="M497.12,540.73c13.86-.81,27.92-2.12,27.3,16.1-.2,6.05-4.46,9.6-4.85,12.3-.26,1.78,3.71,6.63,4.39,10.27,1.08,5.73.09,11.72.39,17.48-19.49,4.28-2.41-21.99-16.16-22.16-4.05-.05-2.31,1.08-2.57,4.22-.49,5.91.35,12.04.01,17.95h-8.52v-56.15Z"/>
  <path class="cls-6" d="M160.1,596.87c-12.68,1.93-6.29-2.89-10.05-7.81-2.72-3.56-7.64-3.64-10.1.46-3.27,5.45,1.05,9.08-10.49,7.34,5.41-14.91,3.67-39.5,8.83-53.25,1.71-4.55,13.43-4.24,14.74-.08l7.06,53.35Z"/>
  <path class="cls-3" d="M177.02,540.82c1.07,1.01,3.32,24.93,4.02,29.14.41,2.47.23,10.92,3.71,9.9,1.89-.56,3.73-36.91,6.16-38.95,1.15-.97,6.2.19,8.32-.18l-8.5,56.14c-4.28-.52-13.42,2.01-15.04-2.84-1.54-4.61-7.76-48.43-7.13-52.34.71-1.77,8.15-1.16,8.46-.87Z"/>
  <path class="cls-35" d="M561.8,556.04c-11.1,2.73-4.21-9.54-15.3-6.82-3.22,12.23,8.54,15.1,13.35,23.23,15.61,26.35-26.61,36.64-23.58,7.4,11.3-.77,6.87-.29,8.82,5.59,1.29,3.88,7.96,3.9,8.23,1.99,2.67-12.08-10.15-15.02-14.49-24.57-11.28-24.84,25.62-32.72,22.97-6.81Z"/>
  <path class="cls-3" d="M342.22,543.28c1.47-4.76,20.74-1.73,25.54-2.54,3.57,12.58-10.97,3.23-14.58,8.39-1.05,1.5-1.32,14.89-.75,15.43.96.91,11.95-2.54,11.95,4.24,0,6.79-10.99,3.33-11.95,4.24-.56.53-.54,14.79,0,15.33,1.76,1.76,18.71-4.76,15.33,8.5h-25.53v-53.59Z"/>
  <path class="cls-29" d="M330.32,559.45c-12.83,3.68-7.18-7.9-10.37-10.06-1.4-.95-6.37-.33-7.61,1.45-1.34,1.9-1.34,33.93.02,35.91,1.68,2.44,7.03,2.45,8.68,0,3.7-5.47-5.01-12.58,9.28-10.3,6.19,21.23-24.86,29.77-27.27,9.4-.78-6.6-.83-36.35,1.91-40.69,7.58-11.99,30.62-1.45,25.37,14.29Z"/>
  <path class="cls-33" d="M209.45,543.28c1.47-4.76,20.74-1.73,25.54-2.54,3.9,12.88-12.75,2.42-15.09,9.59-.54,1.65-.76,13.74-.25,14.23.96.91,11.95-2.54,11.95,4.24s-10.99,3.33-11.95,4.24c-.57.54-.55,14.5,1.1,15.4,3.27,1.8,13.73,1.13,14.23,1.63.24.24.33,6.79,0,6.79h-25.53v-53.59Z"/>
  <path class="cls-12" d="M485.21,540.73c3.38,13.26-13.56,6.74-15.33,8.5-.54.54-.54,14.79,0,15.33.59.59,9.6-.43,11.93-.02l.02,7.54c-13.54.44-12.63,3.93-11.95,16.29,8.1.16,17.06-2.87,15.33,8.5h-23.83v-56.14h23.83Z"/>
  <path class="cls-8" d="M447.76,540.73c3.13,10.55-8.51,7.76-8.51,8.51v47.63h-10.21v-47.63c0-.74-11.64,2.04-8.51-8.51h27.23Z"/>
  <path class="cls-39" d="M78.39,540.73c.24.24.25,6.55,0,6.78-.39.39-10.22-.87-10.22,2.57v46.78h-8.51v-46.78c0-2.57-9.56-2.29-10.2-5.13-.37-1.66,1.93-4.23,2.54-4.23,3.78,0,25.47-.95,26.38,0Z"/>
  <path class="cls-40" d="M257.11,540.73v46.78c0,4.72,18.7-1.04,15.32,9.36h-23.83v-56.14h8.51Z"/>
  <path class="cls-11" d="M326.9,66.08c-.67-5.27.91-6.53,5.94-6.96,2.03-.17,25.36,1.8,26.88,2.22,1.39.39,2.91,1.48,2.92,3.02-3.19-1.45-7.82,1.72-9.36,1.72h-26.38Z"/>
  <path class="cls-20" d="M259.91,24.13c-1.55-1.84-5.48-1.62-4.49-5.68,3.09-2.87,27.71,22.24,27.22,24.63-.38,1.86-2.81,2.95-5.12,1.76-4.05-2.09-13.81-16.21-17.61-20.71Z"/>
  <path class="cls-11" d="M247.75,66.08c-2.22-.24-5.86-3.05-9.36-1.72.01-1.54,1.53-2.63,2.92-3.02,2.61-.73,21.22-2.04,25.2-2.09,4.85-.06,9.15,1.33,7.63,6.83-8.49-.64-18.05.89-26.38,0Z"/>
  <path class="cls-5" d="M342.21,20.16c1.65,1.75-17.94,26.2-21.24,25.5-3.26-2.27-3.49-4.87-.96-7.73l22.2-17.77Z"/>
  <path class="cls-1" d="M277.53,71.19c5.87,5.8-16.55,11.14-19.63,11.86-1.24.29-6.2,2.91-5.86-.81.15-1.59,23.05-13.46,25.49-11.05Z"/>
  <path class="cls-43" d="M347.33,83.08c-4.2.7-26.71-3.61-25.52-9.31,1.43-6.88,23.32,5.71,25.52,9.31Z"/>
  <path class="cls-41" d="M303.07,35.46h-5.1c-.3-10.27-.17-20.5,1.71-30.61,1.8-.69,3.39,5.6,3.39,5.95v24.67Z"/>
  <path class="cls-38" d="M347.32,43.97c.93,4.52-1.15,2.93-3.35,4.22-2.91,1.71-19.15,11.52-20.46,5.1-1.09-5.34,19.66-9.26,23.81-9.32Z"/>
  <path class="cls-4" d="M275.6,49.31c.91,1.33-.04,4.65.23,6.56-1.55,1.66-16.06-6.08-18.76-7.67-2.21-1.29-4.29.3-3.35-4.22,3.32.43,21.06,4.12,21.88,5.33Z"/>
  <path class="cls-27" d="M286.13,38.79c-.88-.62-7.61-19.55-6.88-20.34,2.15-2.32,13.3,15.15,13.41,16.4.33,3.63-4.73,5.2-6.53,3.93Z"/>
  <path class="cls-10" d="M320.08,16.75c.42,4.12-4.33,23.16-9.32,22.11-2.22-.47-2.53-2.92-1.87-5.21.9-3.16,8.31-13.98,11.19-16.9Z"/>
  <path class="cls-21" d="M437.55,266.83c2.41,13.73,4.68,27.34,6.81,40.83,8.35,44.77,15.44,89.73,21.28,134.9-97.57-13.09-197.8-18.89-294.67-.43l-.75-5.39c-16.76-4.59-17.64-8.14-2.65-10.66l.62-4.12c-11.29-.34-15.72-3.54-2.46-7.87l-.75-3.68c-10.52-2.9-6.08-7.12,1.93-9.19.53-.3,5.16.92,3.39-2.53-2.7-5.25-17.74,1.45-.02-11.93-.05-3.01-16.23-1.23,1.7-10.21-16.57-8.37-3.64-7.55-3.24-10.33.52-3.59-4.04-6.37-3.56-8.35.42-1.74,5.05-2.01,5.26-3.56.49-3.51-3.76-6.06-3.39-8.16s5.25-3.64,4.72-6.68c-.3-1.71-3.76-3.63-3.29-7.04.21-1.55,4.84-1.82,5.26-3.56.5-2.07-5.17-5.79-3.19-9.11.39-.66,4.49-1.15,4.89-2.79.48-1.97-4.09-4.77-3.56-8.35.23-1.56,4.84-1.82,5.26-3.56.49-2.01-4.91-5.76-3.42-9.3l6.83-2.58c1.85-5.88-13.64-8.12,1.67-11.07l-5.09-10.16c2.29-.15,6.04-2.37,6.78-4.31,1.48-3.85-6.12-2.64-5.09-6.76.48-1.92,9.05-4.1,6.79-7.64-1.9-2.99-12.09-1.67,3.4-9.41l-6.78-3.37,10.2-5.96c2.32-1.42,4.02.28,5.11,5.1,5.93,5.94,18.09,15.91,22.12,21.28,6.51,8.69,8.27,23.92-5.92,21.29-6.65-1.23-3.85-8.48-4.27-13.66-24.3-5.35-16.72,26.86,1.03,28.82,28.4,3.12,38.17-29.92,20.3-49.29-6.41-6.95-30.63-21.05-18.02-33.19,11.5-11.07,11.28,8.65,12,9.43.66.71,15.38,2.66,15.41-5.89.07-15.95-13.2-21.91-27.43-18.86-6.36,1.36-11.12,7.36-14.45,7.8-3.47.45-16.19-1.87-8.59-5.32,2.81-1.28,15.45-4.09,16.33-4.97,6.18-6.15-23.19-.61-17.01-6.76,1.55-1.54,20.57-5.31,22.12-6.85,6.3-6.26-16.64-1.74-17.89-1.66-2.9.18-4.16-1.76-2.53-3.39,1.93-1.93,25.28-6.62,27.23-8.55,2.41-2.4-.21-3.14-2.56-3.42-5.43-.66-11.23,1.61-16.95,1.82-1.88.07-6.47,1.06-6.01-1.76,6.58-1.97,13.31-4.9,20.03-6.36,40.08-8.66,94.9-9.59,135.69-5.56,10.19,1.01,68.38,10.46,72.52,15.98,5.48,32.12,11.05,64.25,16.86,96.28Z"/>
  <path class="cls-24" d="M134.07,205.94c6.56-1.47,21.57,0,28.52,1.4,1.94.39,3.47.51,4.18,2.71l-26.29,152.05c-11.41-4.81-34.14-25.91-34.74-38.4,7.16-32.16,8.28-67.67,15.99-99.46,1.8-7.41,3.41-16.3,12.33-18.3Z"/>
  <path class="cls-24" d="M383.07,135.82c-37.6-3.18-75.37-7.12-113.26-5.17-4.19.22-50.21,6.88-50.16,4.31-.41-2.62,2.09-3.49,3.59-4.92,12.33-11.78,50.25-38.91,65.62-44.99,11.74-4.65,13.51-3.38,25.04,1.69,15.62,6.86,52.29,30.82,64.87,42.34,2.07,1.9,4.88,3.41,4.3,6.74Z"/>
  <path class="cls-45" d="M146.47,452.26c24.76-8.01,52.16-11.26,78.36-14.03,52.5-5.55,103.16-4.27,155.69-1.06,32.44,1.98,63.46,5.86,91.88,13.55,3.3,1.84,3.05,3.94.92,6.74-111.83-14.93-223.71-18.35-334.57,3.92-3.33-1.76-4.67-5.65-.79-7.42,1.7-.49,6.31-1.3,8.51-1.7Z"/>
  <path class="cls-39" d="M449.46,442.05c-.96,4.16,2.14,3.69,5,4.28,4.55.94,23.32,1.31,22.14,8.29l-4.54,4.13c-83.67-10.76-168.85-16.98-253.23-8.17-27.22,2.84-54.23,9.23-81.33,11.62-5.8-3.64-7.08-6.07.46-8.23l1.03,6.7c30.4-4.88,61.02-10.61,91.75-13.5,80.61-7.56,162.66-1.28,242.54,10.19.23-3.15.62-5.17-2.91-6.43-7.28-2.6-23.68-4.03-32.22-5.23-100.04-14.06-192.52-11.55-291.68,6.56,8.69-5.15.43-4.81.13-5.19-3-3.84,2.43-2.91,3.27-3.32,1.95-.73,3.25-1,3.41.63,95.78-16.94,198.12-19.58,296.17-2.34Z"/>
  <path class="cls-13" d="M449.46,442.05c-81.31-9.87-158.77-15.08-240.64-4.88-17.24,2.15-35.29,7.3-52.48,8.96-3.04.29-5.03,2-6.46-2.37,5.4-2.59,10.73-5.6,17.02-5.12-.77-4.55-11.42-3.5-11.93-5.96-1.47-7.12,9.15-6.67,13.62-7.65-.15-2.96-5.7-1.52-8.58-2.45-10.43-3.35-2.15-9.17,5.19-9.46,1.17-1.47-20.31-8.35,1.71-11.89-2.41,1.37-7.81,3.42-6.8,6.8,24.02,1.44,6.33,5.42-1.71,11.9,1.75-.99,21.8.32,17.02,5.1-1.97,1.97-15.45,1.37-17.02,6.81l20.43,1.73c1.74,5.78-6.32,2.66-6.8,6.78,21.38-1.53,42.52-6.51,63.83-8.48,47.4-4.37,98.84-3.34,146.36,0,27.59,1.94,55.21,6.42,82.56,10.19-6.94-44.73-13.17-89.71-20.42-134.39.48-1.49,1.05-1.46,1.7,0,7.72,44.36,13.28,89.2,21.91,133.42-1.37,5.69-14.72,1.44-18.51.98Z"/>
  <path class="cls-30" d="M260.51,142.65c1.22,4.38-3.56,4.07-6.4,4.6-16.29,3.02-33.23,3.55-49.14,8.94-8.79-.68-6.73-5.93.66-8.01,16.15-4.55,38.09-4.77,54.88-5.53Z"/>
  <path class="cls-28" d="M391.48,147.87c.32.53.29,4.78.11,4.96-1.68,1.75-42.24-4.57-48.03-5.59-2.37-.42-11.47-1.51-11.52-3.76-.07-3.23,5.18-1.83,6.78-1.74,6.51.36,51.12,3.63,52.65,6.13Z"/>
  <path class="cls-16" d="M192.43,234.5c-3.75-2.78-5.91-3.51-10.18-5.95,0-2.37,11.18-4.93,13.58-4.26l1.71,15.32c-1.78-1.78-2.91-3.48-5.11-5.1Z"/>
  <path class="cls-39" d="M446.06,307.66h-1.7c-2.19-13.5-6.98-26.88-6.81-40.83,2.37,13.08,6.15,27.25,8.51,40.83Z"/>
  <path class="cls-25" d="M197.53,212.4c2.39,9.47-13.71,7.8-13.57,4.24.09-2.39,10.93-4.9,13.57-4.24Z"/>
  <path class="cls-31" d="M97.35,549.49c1.47-2.3,7.42-2.15,9.11,1.45,4.69,10.02-3.35,21.27-8.58,13.68-1.13-1.64-1.39-13.78-.53-15.13Z"/>
  <path class="cls-19" d="M513.89,549.51c2.38,3.82,1.32,20.99-8.25,16.74.68-4.47-1.43-13.57.78-17.09,1.6-2.55,6.87-.61,7.47.35Z"/>
  <path class="cls-18" d="M146.46,557.74c.68.72,3.44,18.48,3.22,19.44-.67,2.91-7.45,3.51-8.3,2.69-.94-.91,1.24-16.76,1.75-19.54.4-2.18.57-5.51,3.33-2.59Z"/>
  <path class="cls-46" d="M192.43,408.03v-95.27c28.62-5.29,50.24-10.41,44.16,27.97-.85,5.39-7,9.53-6.6,11.78.35,2,6.87,5.59,8.04,10.79.99,4.39.91,15.41.45,20.14-2.38,24.34-27.4,22.53-46.04,24.58Z"/>
  <path class="cls-22" d="M296.26,399.52h-15.32v-29.77c0-8.19-9.1-8.57-15.32-7.66v36.58c0,3.55-12.48,2.55-15.32,2.55v-95.27c26-4.11,49.38-5.66,45.96,28.08-.76,7.49-8.57,17.45-8.39,18.46.23,1.25,8.39,9.38,8.39,13.85v33.17Z"/>
  <path class="cls-22" d="M323.04,302.96c13.47-2.48,27.18,3.12,29.24,17.61,1.6,11.23,1.71,53.28-.25,64.09-3.92,21.67-41.8,21.64-45.41-4.85-1.54-11.3-1.6-47.97.26-58.98,1.42-8.44,7.6-16.29,16.16-17.86Z"/>
  <path class="cls-34" d="M284.53,290.45c-4.61-3.9,5.35-22.44-19.48-16.89-5.61,12.04.84,21.46-18.15,18.77l16.35-97.07c8.63,2.59,20.62-6.96,21.98,5.18l14.22,87.52c-.9,3.75-13.94,3.33-14.93,2.49Z"/>
  <path class="cls-2" d="M379.67,256.62v33.17c0,4.3-17.02,3.25-17.02-1.7v-90.17c0-5.16,26.84-.4,31.13,1.21,15.77,5.9,16.44,25.42,14.83,39.63-2.03,17.93-13.05,20.39-28.94,17.86Z"/>
  <path class="cls-26" d="M406.91,334.88c-17.26,1.04-11.02-2.58-14.75-11.54-2.62-6.31-14.54-5.36-14.12,5.41.53,13.59,23.23,27.22,27.99,41.86,14.58,44.82-49.55,43.84-43.39,1.68,19.39-1.41,12.45,1.06,15.66,12.43,1.96,6.93,14.59,6.8,14.49-2.75-.17-16.04-21.15-25.85-27.08-40.81-17.49-44.11,45.6-49.02,41.2-6.28Z"/>
  <path class="cls-26" d="M309.88,288.94v-95.27h26.38c1.04,0,8.82,3.92,10.25,5.06,10.27,8.2,10.24,37.56,3.29,47.6-7.62,11.01-21.1,4.51-23.87,8.47-3.17,4.55,1.68,27.98-1.49,32.54-2.1,3.01-10.87,1.15-14.58,1.59Z"/>
  <path class="cls-9" d="M432.44,408.03c-14.59,1.71-14.54-2.01-13.63-15.32,14.59-1.71,14.54,2.01,13.63,15.32Z"/>
  <path class="cls-42" d="M207.75,392.72v-28.07c0-2.3,13.92-7.92,15.41,6.7s.52,20.79-15.41,21.37Z"/>
  <path class="cls-44" d="M207.75,348.49c1.02-5.37-2.59-23.54,2.78-25.34,15.96-5.34,17.53,30.54-2.78,25.34Z"/>
  <path class="cls-37" d="M265.63,320.42c1.19-3.85,10.67-2.98,13.21-.44,3.06,3.05,2.63,15.93,1.34,20.09-2.23,7.16-14.55,10.54-14.55,5.87,0-5.59-1.16-21.78,0-25.52Z"/>
  <path class="cls-17" d="M337.12,383.36c-1.25,4.02-13.04,5.02-14.94-3.78-1.92-8.88-1.37-42.3-.46-52.44,1.61-17.83,15.4-9.85,15.4-6.72v62.95Z"/>
  <path class="cls-36" d="M274.13,219.19l5.12,40.83h-13.63c1.9-12.22,2.26-26.4,5.15-38.28.63-2.58-1.19-2.99,3.36-2.55Z"/>
  <path class="cls-23" d="M377.97,213.24c1.54-4.96,12.09-2.7,14.43,2.59,1.69,3.83,1.78,21.73-.65,24.79-3.13,3.95-13.78,2.84-13.78-.16,0-5.89-1.22-23.29,0-27.22Z"/>
  <path class="cls-14" d="M325.2,207.28c15.63-2.59,14.92,11.14,13.71,23.07-.99,9.85-4.11,9.71-13.71,9.26v-32.32Z"/>
</svg>