<?xml version="1.0" encoding="UTF-8"?>
<svg id="Layer_1" data-name="Layer 1" xmlns="http://www.w3.org/2000/svg" viewBox="0 0 598.91 601.53">
  <defs>
    <style>
      .cls-1 {
        fill: #ed1d38;
      }

      .cls-2 {
        fill: #ed1c38;
      }

      .cls-3 {
        fill: #047553;
      }

      .cls-4 {
        fill: #f26833;
      }

      .cls-5 {
        fill: #037553;
      }

      .cls-6 {
        fill: #047654;
      }
    </style>
  </defs>
  <path class="cls-1" d="M529.13,2.55v147.71c-62.36,32.7-115.26,84.04-136.34,152.76h-154.01C271.39,159.49,385.42,37.99,529.13,2.55Z"/>
  <path class="cls-4" d="M450.86,2.55l-42.72,24.18c-50.29,32.64-97.37,73.76-128.96,124.79H77.18V2.55h373.68Z"/>
  <rect class="cls-2" x="228.67" y="451.99" width="148.97" height="148.97"/>
  <path class="cls-3" d="M448.33,325.74c9.64,2.36,33.8-6.57,30.32,7.6,13.15-8.68,31.8-12.94,42.96,1.18,1.71,2.16,7.51,13.65,7.51,15.21v82.06h-30.3v-77.01c0-8.23-22.72-1.82-22.72,5.05v71.96h-27.77v-106.05Z"/>
  <path class="cls-3" d="M314.4,325.87c2.29,2.22,7.74,54.76,10.24,63,4.82-.88,4.19-5.25,5.15-8.71,2.68-9.66,5.9-48.11,8.56-52.04,3.38-5,24.9-1.27,31.71-2.35-6.27,12.3-20.74,103.61-26.84,105.69-3.73,1.27-32.54,1.07-34.05-1.14l-22.44-104.58c4.76.85,26.23-1.26,27.67.12Z"/>
  <path class="cls-3" d="M276.64,325.74v22.74s-30.31-.02-30.31-.02c-4.13,26.88,10.18,19.66,30.32,20.2v17.7s-30.36,1.44-30.36,1.44l.03,23.81,30.32-.03v20.21h-60.61v-106.05h60.6Z"/>
  <path class="cls-6" d="M137.78,325.74c3.98,30.61-8.08,20.23-30.34,24.18l.03,18.76,30.32-.03v17.7s-30.36,1.44-30.36,1.44l.03,23.81,30.32-.03v20.21h-60.61v-106.05h60.6Z"/>
  <path class="cls-5" d="M438.23,325.74c4.51,30.25-10.08,22.04-32.83,22.71-4.6,28.09,12.66,19.1,32.85,20.2v17.7c-14.55,2.37-32.3-8-33.02,11.3-.84,22.58,16.52,11.63,33.02,13.92v20.21h-60.61v-106.05h60.6Z"/>
  <path class="cls-5" d="M175.65,325.74v79.54c0,6.01,24.93,3.28,30.31,3.77v22.74h-58.08v-106.05h27.77Z"/>
</svg>