<?xml version="1.0" encoding="UTF-8"?>
<svg id="Layer_1" data-name="Layer 1" xmlns="http://www.w3.org/2000/svg" viewBox="0 0 598.91 601.53">
  <defs>
    <style>
      .cls-1 {
        fill: #ed1d35;
      }

      .cls-2 {
        fill: #fffbfb;
      }

      .cls-3 {
        fill: #ee2137;
      }

      .cls-4 {
        fill: #fef7f7;
      }

      .cls-5 {
        fill: #ef4a5e;
      }

      .cls-6 {
        fill: #fff;
      }

      .cls-7 {
        fill: #0b8391;
      }

      .cls-8 {
        fill: #fdeeed;
      }

      .cls-9 {
        fill: #f16373;
      }

      .cls-10 {
        fill: #f47d3f;
      }
    </style>
  </defs>
  <polygon class="cls-7" points="2.3 427.77 2.3 173.24 304.33 151.86 595.39 173.41 596.9 174.41 596.9 426.59 594.32 427.77 301.82 449.14 2.3 427.77"/>
  <path class="cls-6" d="M581.13,188.28v224.44l-275.54,20.12c-95.68-5.69-191.35-13.3-286.96-20.12v-224.44l270.59-20.05,18.88-.07,273.03,20.12Z"/>
  <path class="cls-1" d="M495.76,388.89l.64-48.88,5.82,20.49c5.91,19.97,33.28,21.45,33.76-2.38.38-19.31-24.29-18.23-33.23-30.74-12.68-17.73-3.75-55.12,15.7-65.66,11.08-6.01,22.15-1.58,31.29-9.49-2.14,8.78,4.33,34.87.66,41.4-1.21,2.15-2.21.68-2.86-.95-1.91-4.75-2.81-9.59-6.03-14.04-13.6-18.85-28.62,9.49-18.78,18.75,4.33,4.07,16.27,6.03,22.42,10.22,25.07,17.04,14.57,83.78-21.14,83.89-6.75.02-17.79-5.3-22.67-5.02-2.37.14-3.04,2.93-5.57,2.42Z"/>
  <path class="cls-1" d="M41.23,388.9c-1.74-6.61,3.63-7.84,5.98-12.2,3.63-6.72,21.37-100.59,20.31-107.47-.52-3.4-3.63-6.57-2.43-10.73,3.89,2.53,30.08,8.43,31.27,10.13,1.51,2.16-2.18,6.43-2.5,9.27-.45,3.9,1.08,8.31,1.75,12.18,3.16,18.43,14.51,77.9,22.17,91.63,1,1.79,5.47,2.02,3.8,7.19h-36.41c-1.94-7.11,3.94-6.03,4.94-11.99,2.59-15.58-9.82-34.12-25.01-38.16-.53,9.96-8.85,33.68-3.64,41.92,1.56,2.48,5.44,1.71,3.63,8.24h-23.86Z"/>
  <path class="cls-1" d="M314.93,294.86c.02,8.88,1.8,17.73,1.71,26.64-.01,1.31,1.02,2.69-1.09,3.44-2.37.84-6.7-11.82-9.34-13.21-12.51-13.31-28.87-3.27-21.93,8.1,6.17,10.11,36.46,8.64,39.34,29.68,3.24,23.71-11.01,42.51-35.68,41.98-9.14-.2-18.97-6.77-26.97-1.34l-2.52-38.87h3.76c-3.21,17.33,24.3,40.03,36.44,23.23,11.45-15.86-16.73-22.12-25.52-27.22-23.56-13.69-16.85-53.96,13.51-53.71,8.99.08,20.32,6.53,28.29,1.29Z"/>
  <path class="cls-1" d="M404.09,388.9c-2.44-2.44,3.15-4.88,3.82-5.91,4.49-6.94,3.45-51.28,3.66-62.48.14-7.48,3.54-16.8.36-24.08-1.17-2.67-5.06-4.02-4.08-7.82,16.58-1.08,35.88-8.26,52.05-8.84,16.64-.6,17.36,8.68,14.15,22.9s-12.86,23.55-24.38,30.82c-3.66,2.31-15.54,6.8-16.46,9.89-1.05,3.52-.79,30.17-.13,34.79,1.13,7.8,7.77,2.71,6.16,10.73-4.65-.94-33.92,1.24-35.16,0Z"/>
  <path class="cls-1" d="M401.57,289.85c.23,6.1-6.45,6.92-7.46,13.23-3.58,22.54,8.34,66.4-12,82.05-11.34,8.73-38.03,9.09-45.27-4.94-8.52-16.5.97-54.8-1.75-74.73-.95-6.94-5.6-4.81-6.31-5.64-.14-.16-.15-3.54-.03-3.69,1.21-1.49,32.72-1.94,37.67-2.52.9,4.7-3.63,4.34-6.1,8.34-4.8,7.79-3.93,39.46-3.9,50.01,0,2.66-1.33,5.1-1.31,7.47.07,6.22,2.64,17.58,9.68,19.17,10.66,2.41,15.99-2.53,18.62-12.21s3.28-59.5-1.37-66.45c-1.16-1.74-8.21-4.97-5.6-7.58.89-.89,21.67-1.89,25.11-2.51Z"/>
  <path class="cls-1" d="M124.1,388.9c-1.06-4.51,3.04-6.69,3.7-10.72,2.21-13.45-.89-29.09-1.24-42.52-.4-15.28.61-31.23-1.2-46.44-.81-6.79-5.91-8.81-4.38-14.44,3.94,2.09,31.08,6.19,32,7.56,2.11,3.14-3.41,4.72-4.19,6.54-2.14,4.98-.15,56.19.38,65.59.24,4.21,1.44,17.98,3.26,20.57,2.32,3.3,6.13,3.05,9.9,2.49,11.42-1.7,17.07-20.52,20.17-30.01,2.31,1.59,1.75,2.95,1.6,5.23-.78,11.9-5.26,25.26-6,37.39-.48.61-1.59-1.25-1.87-1.25h-52.11Z"/>
  <path class="cls-1" d="M191.9,388.9c-.93-4.04,3.43-5.5,4.47-8.7,2.41-7.49-.77-66.94-1.96-78.44-.22-2.16-.65-4.01-1.54-5.99-1.15-2.58-7.69-7.21-.31-7.23,2.99,0,28.44,2.76,29.43,3.87,2.91,3.23-3.26,6.02-4.07,7.73-1.63,3.47-.24,55.46.36,63.04.72,9.1.76,16.82,11.93,15.74,12.57-1.21,15.95-16.12,20.12-25.14.87-1.88-.18-3.1,3.08-2.49-2.44,10.25-2.93,27.48-6.5,36.75-.34.89-.6,1.64-1.65,1.84-.58-.04-.97-.98-1.26-.98h-52.11Z"/>
  <path class="cls-10" d="M298.62,190.78c.55.52-.39,12.68.01,15.05,1.55,2.04,2.27-.02,2.51-1.85.8-6.26-3.29-15.33,5.01-13.19l.02,16.3c2.89-.49.4-7.97,1.25-8.78.32-.31,3.79.21,5.01,0-1.86,13.16,1.25,9.58,7.59,15.64,5.72,5.47,4.88,10.34,16.28,8.2v3.75c-1.06,1.12-10.22-2.43-8.79,2.51h16.31c1,8.06-9.62,4.21-15.06,5.03l12.98,1.44c2.35.82,2.29,2.55,2.08,4.81h-16.31c-1.43,4.95,7.72,1.4,8.79,2.52,1.95,8.98-5.86,2.95-11.32,5.63-1.7.83-3.08,4.65-4.96,6.32-1.62,1.44-7.1,4.22-7.32,4.6-2.48,4.24,4.12,14.72-5.28,12.29l-1.25-10.03c-.45,2.51.57,15.74-.02,16.3-.18.17-4.83.17-5.01,0-.55-.52.39-12.68-.01-15.05-1.55-2.04-2.27.02-2.51,1.85-.8,6.26,3.29,15.33-5.01,13.19l-.02-16.3c-2.88,1.02-.12,6.3-1.84,8.8-1.17,1.7-2.64,1.27-4.42,1.22-.61-2.81.94-10.54-.21-12.34-.22-.34-3.91-1.33-5.46-2.69-2.07-1.82-6.7-8.23-7.73-8.58-5.41-1.84-12.28,3.53-10.48-5.21,1.07-1.12,10.22,2.43,8.79-2.51-2.51-.44-15.76.58-16.32-.01-.17-.18-.17-4.82,0-5,.52-.54,12.7.4,15.07-.02.29-2.19-2.85-1.18-4.37-1.24-6.13-.25-12.5,2.58-10.69-5.01h16.32c1.43-4.95-7.73-1.4-8.79-2.52v-3.75c11.4,2.14,10.56-2.73,16.28-8.2,6.34-6.06,9.44-2.48,7.59-15.64,1.22.21,4.69-.31,5.01,0,.85.81-1.64,8.28,1.25,8.78.45-2.51-.57-15.74.02-16.3.18-.17,4.83-.17,5.01,0Z"/>
  <path class="cls-3" d="M485.3,264.95c3.56-.32,5.31,6.35,5.31,9.07-.01,8.11-3.6,27.36-5.28,36.13-1.14,5.97-3.9,14.03-4.7,2.95-.67-9.26-4.57-38.28-.5-44.5.93-1.42,3.58-3.5,5.18-3.65Z"/>
  <path class="cls-9" d="M569.83,254.74l-1.97,1.15c-2.08-2.3-5.37-1.7-8.07-1.15-2.2,3.06-3.15,11.84,1.08,10.39,8.66,3.92,8.67-1.29,7.92-9.06l1.04-1.32c12.46,12.38-12.78,23.08-15.01,8.06-1.44-9.73,7.42-15.61,15.01-8.06Z"/>
  <polygon class="cls-4" points="82.65 334.98 68.01 324.41 73.89 292.36 82.65 334.98"/>
  <path class="cls-2" d="M434.23,303.01c1.69-11.54,17.9-14.67,17.68,0-.18,11.87-8.21,19.85-17.68,25.7.83-8-1.13-17.99,0-25.7Z"/>
  <path class="cls-6" d="M293.26,211.14c35.2-7.29,40.98,44.59,8.15,47.1-29.21,2.24-33.62-41.83-8.15-47.1Z"/>
  <path class="cls-8" d="M569.83,254.74c2.44,2.43,1.76,11.22-2.54,13.15-8.65,3.89-16.32-8.48-7.5-13.15q3.34,3.18,0,0c2.49-1.32,8.17-1.87,10.04,0Z"/>
  <path class="cls-5" d="M559.78,254.74c11.21-.33,5.73,3.73,7.52,11.28l-5-3.77-2.52,3.76v-11.28Z"/>
</svg>