<?xml version="1.0" encoding="UTF-8"?>
<svg id="Layer_1" data-name="Layer 1" xmlns="http://www.w3.org/2000/svg" viewBox="0 0 598.91 601.53">
  <defs>
    <style>
      .cls-1 {
        fill: #fefdfd;
      }

      .cls-2 {
        fill: #ec212d;
      }

      .cls-3 {
        fill: #fefefd;
      }

      .cls-4 {
        fill: #ed202d;
      }

      .cls-5 {
        fill: #ec222e;
      }

      .cls-6 {
        fill: #d96663;
      }

      .cls-7 {
        fill: #fffefd;
      }

      .cls-8 {
        fill: #fef9f8;
      }

      .cls-9 {
        fill: #fffefe;
      }

      .cls-10 {
        fill: #fefefe;
      }
    </style>
  </defs>
  <path class="cls-4" d="M267.38,146.53c2.06.64,2.69,6.77,5.47,7.68,1.84.61,17.52.62,19.35.02,3.41-1.12,2.92-17.41.88-18.92-1.34-1-5.79-1.11-8.25-2.27-13.22-6.22-13.01-21.75-20.86-26.55-6.51-3.98-14.38,2.93-15.67,1.88,2.08-12.33,10.67-17.01,22.36-18.42-2.17-2.92-9.16-6.33-12.59-6.47-4.04-.17-9.84,2.47-13.7,3.85-.17-12.76,12.92-18.02,23.67-19.74-7.3-8.6-17.31-3.63-26.32-1.31,7.2-29.48,49.58-27.48,52.71,3.23.39,3.83.26,10.53-.22,14.39-.76,6.17-7.87,14.79,1.13,16.37,17.91,3.14,12.28-30.05,22.7-37.27-3.07-1.01-10.6-3.16-9.19-7.84,1.38-4.57,8.89-.3,9.19-.69.5-.67-.78-5.49,2.02-6.58,2.58-.67,4.11,2.18,5.49,2.42,1.63.28,5.04-3.84,6.96-2.41.28.21.38,3.78,1.63,4.96,1.48,1.41,5.84,1.14,7.06,2.88,1.56,2.21-1.37,5.79-.77,6.58.34.45,8.34,2.62,9.2,5.98-1.1,1.21-7.32,1.19-7.9,1.98-.5.69,3.9,8.86-.81,10.4-6.06,1.99-7.68-8.53-11.02-5.15-3.05,3.08,7,14.86,8.18,18.77,5.88,19.58-14.75,38.5-33.19,40.41v19.73h23.69c.67-2.1-1.82-11.6,1.93-10.49,2.22.66,29.24,13.5,29.66,15.11.69,2.67-1.25,1.82-2.61,2.6-5.58,3.2-21.84,12.25-27.05,13.8-3.75,1.11-1.26-8.4-1.93-10.49h-21.71c-.14,0-1.97,1.83-1.97,1.97v19.73l289.54,151.26.79,3.33-16.14,28.78c-3.97,1.16-28.25-14.93-34.67-15.68v147.96c0,.43-1.74,2-1.32,3.29H54.85v-152.56l-35.51,18.41c-.41-5.69-17.08-29.98-15.25-32.88l285.44-148.84c6.95-1.09,5.63-22.77,3.6-24.19-1.26-.88-18.43-1.06-20.31-.4-2.26.79-3.28,7.72-5.43,7.72h-32.24c.08-4.32,4.99-8.55,5.25-12.59.21-3.25-7.47-13.71-3.28-13.71,6.11,0,26.27-1.24,30.27,0Z"/>
  <path class="cls-6" d="M560.16,501.61l2.66-2.6v6.58c-6.12-1.52-8.13,3.16-8.56-5.27l-3.26,5.26-2.64-6.56c4.6-.29,8.21-.61,11.8,2.59Z"/>
  <path class="cls-10" d="M407.08,459.09c-22.13,21.3-63.01,12.31-49.53-23.21,10.2,9.05,22.06,10.88,33.54,2.62,3.11-2.24,10.63-9.53,9.22-13.14-8.3,7.98-26.21,9.37-32.08-2.15-10.28-20.14,25.58-59.19,22.2-82.04,25.39,2.28,20.86,19.03,14.16,37.18-2.45,6.64-13.16,24.64-11.37,30.35,1.97,6.28,8.36-1.64,10.14-3.96,11.67-15.18,19.5-44.3,23.94-62.91.4-1.69-1.02-2.26,1.9-1.94,23.93,2.62,13.07,34.21,9.26,48.64-5.29,20.01-16.54,56.27-31.39,70.56Z"/>
  <path class="cls-9" d="M171.88,362.12c-25.19-1.31-21.83-20.67-13.07-38.03-26.45,8.45-44.86,43.35-40.7,70.27,1.59,10.34,13.21,17.29,23.24,14.18,6.31-1.96,9.13-7.44,14.83-9.48,10.84,41.75-48.52,61.51-63.19,20.4-12.22-34.26,7.26-79.03,34.22-101.31,12.22-10.1,33.07-20.33,47.42-9.22,19.52,15.12-.76,34.64-2.76,53.19Z"/>
  <path class="cls-1" d="M207.5,416.15c-3.03-.75-2.16.56-3.01,1.65-6.26,8.09-10.89,16.3-22.63,16.83-27.19,1.23-17.57-38.33-10.12-53.58,8.45-17.3,35.74-47.18,57.2-42.23,5.78,1.33,5.63,7.15,8.91,9.5,2.79,1.99,10.36,1.62,10.42,6.63.02,2.05-6.93,17.74-8.22,22.04-4.61,15.34-9.35,31.67-8.92,47.75.11,4.27,3.96,10.02-1.92,11.12-13.93,2.6-23.3-5.67-21.72-19.71Z"/>
  <path class="cls-7" d="M328.58,400.37c-.82,16.49,22.62,11.07,31.57,5.26,2.64,27.41-42.44,45.57-54.61,18.42-10.85-24.21,12.72-71.38,36.61-81.81,25.74-11.23,41.65,10.02,29.9,33.83-7.27,14.73-27.72,23.1-43.47,24.3Z"/>
  <path class="cls-3" d="M508.87,380.64c-16.29-2.54-19.19-12.42-11.83-26.29-8.63,2.05-17.16,9.35-15.74,18.96,1.78,12.05,24.62,14.26,22.32,38.24-3.84,40.07-83.32,31.54-55.26-13.81,5.74,7.36,14.39,15.63,24.68,10.86,12.6-5.84-6.73-18.3-10-23.57-15.71-25.3,24.46-57.86,45.18-42.52,14.99,11.1,2.58,24.14.66,38.13Z"/>
  <path class="cls-7" d="M302.25,380.64c-7.56,0-17.65-6.48-16.83-14.82.37-3.77,4.16-7.34,3.67-11.48-7.84,1.58-16.96,10.24-15.56,18.73,1.88,11.4,23.89,15.77,23.56,35.84-.6,36-63.53,38.76-57.92,2.72.52-3.34,5.5-12.53,8.48-13.88,1.81,8.12,12,16.7,20.34,11.11,10.04-6.73-9.64-19.18-12.91-25.12-13.54-24.6,25.67-55.89,44.58-41.92,17.54,12.96,3.41,22.57,2.6,38.83Z"/>
  <path class="cls-8" d="M454.92,312.24c24.41,1.37,23.88,13.58,11.59,30.65-3.6,5-6.57,10.67-13.66,7.61-.99-.43-2.9-.98-3.01-2.06-.15-1.5,5.08-14.02,5.08-17.13v-19.07Z"/>
  <path class="cls-2" d="M227.23,353.02c-1.82,10.58-21.32,53.74-30.97,55.26-13.69,2.16-.48-24.57,2.8-30.17,6.2-10.58,16.28-21.3,28.18-25.09Z"/>
  <path class="cls-5" d="M354.72,357.15c.72,1.16.32,7.59-.1,9.4-1.94,8.44-16.08,18.51-24.72,19.33-2.01-7.12,19.01-38.03,24.82-28.74Z"/>
</svg>