<?xml version="1.0" encoding="UTF-8"?>
<svg id="Layer_1" data-name="Layer 1" xmlns="http://www.w3.org/2000/svg" viewBox="0 0 598.91 601.53">
  <defs>
    <style>
      .cls-1 {
        fill: #fdfdfc;
      }

      .cls-2 {
        fill: #fdfbfb;
      }

      .cls-3 {
        fill: #f26332;
      }

      .cls-4 {
        fill: #fdfcfc;
      }

      .cls-5 {
        fill: #d6272c;
      }

      .cls-6 {
        fill: #d52128;
      }
    </style>
  </defs>
  <rect class="cls-6" x="3.29" y="229.73" width="593.62" height="194.55"/>
  <rect class="cls-3" x="3.29" y="434.2" width="593.62" height="28.5"/>
  <path class="cls-1" d="M526.12,297.89h-25.46c-2.02,0-19.26,29.82-24.22,32.22v-32.22h-22.35v71.87h22.35v-32.22l40.97,53.26c-54.6,30.35-117.65-19-97.45-79.25,24.9-74.27,144.65-47.5,126.95,37.45-.83,3.99-8.23,23.63-11.53,24.47-3.06.78-29.22-36.08-34.02-40.44l24.76-35.15Z"/>
  <path class="cls-4" d="M214.41,369.76h-22.35c-5.08-9.74-11.11-20.56-18.63-28.5v28.5h-18.63v-71.87h34.15c1.88,0,11,4.23,12.96,5.66,14.01,10.25,9.81,31.9-4.86,39.57l17.37,26.65Z"/>
  <path class="cls-4" d="M106.56,345.15c2.78-1.63,13.44,6.72,15.82,9.11-18.91,29.2-67.29,19.48-70.49-16.25-3.66-40.8,48.27-56.93,70.4-24.62,0,1.57-13.13,10.67-14.7,9.96-2.63-1.2-5.74-7.53-9.85-8.8-18.81-5.79-33.77,13.59-24.19,30.34,6.1,10.67,21.31,11.85,30.43,4.5,1.45-1.17,2.24-4.03,2.58-4.23Z"/>
  <path class="cls-4" d="M283.8,352.56c3.08,5.24-15.67,16.54-21.14,17.64-62.49,12.61-65.13-80.5-4.3-73.42,7.7.9,21.68,7.64,25,14.75,1.93,4.15-9.79,11.19-12.47,11.13s-6.99-6.84-11.73-8.08c-34.62-9.04-34.92,47.61,0,38.49,4.66-1.22,9.34-8.12,11.74-8.11.75,0,12.53,6.95,12.91,7.59Z"/>
  <polygon class="cls-4" points="387.03 297.89 387.03 314 358.46 314 358.46 326.39 385.79 326.39 385.79 341.26 358.46 341.26 358.46 353.65 387.03 353.65 387.03 369.76 339.84 369.76 339.84 297.89 387.03 297.89"/>
  <polygon class="cls-2" points="308.79 297.89 308.79 353.65 333.63 353.65 333.63 369.76 288.92 369.76 288.92 297.89 308.79 297.89"/>
  <rect class="cls-2" x="127.48" y="297.89" width="18.63" height="71.87"/>
  <path class="cls-5" d="M173.43,314.62c1.32-4.21,18.58-1.93,18.67,8.65.12,13.64-18.67,13.5-18.67,9.94,0-4.05-.84-15.89,0-18.59Z"/>
</svg>