<?xml version="1.0" encoding="UTF-8"?>
<svg id="Layer_1" data-name="Layer 1" xmlns="http://www.w3.org/2000/svg" viewBox="0 0 598.91 601.53">
  <defs>
    <style>
      .cls-1 {
        fill: #db203c;
      }

      .cls-2 {
        fill: #e9767e;
      }

      .cls-3 {
        fill: #db203b;
      }

      .cls-4 {
        fill: #db1f3b;
      }

      .cls-5 {
        fill: #fef8f8;
      }

      .cls-6 {
        fill: #db1f3c;
      }

      .cls-7 {
        fill: #e35062;
      }
    </style>
  </defs>
  <path class="cls-4" d="M70.79,261.34l-12.12,31.89c10.93-10.12,21.84-20.49,31.41-31.89h36.93c-10.47,12.08-24.83,20.27-36.15,31.57-.52,1.73-.3,3.48-.24,5.25.68,18.01,6.61,39.42,6.72,57.22,0,1.35-.29,4.94-1.75,4.94h-26.46c-3.72,0-3.81-40.39-6.08-45.09-4.64,4.56-14.36,9.57-18.14,14.33-5.71,7.2-7.21,23.16-13.27,30.75H6.3c-.41,0-1.68-1.42-2.76-1.11l37.49-97.86h29.77Z"/>
  <path class="cls-4" d="M134.73,292.13c1.21,3-4.13,32.94-1.65,33,2.53-4.18,12.43-33,15.43-33h21.5l-2.19,32.99c7.29-9.21,8.89-22.76,14.87-32.99h23.7l-27.01,68.18h-26.46c-.12,0-1.65-1.53-1.65-1.65v-21.45c-6.64,6.11-8.33,16.05-13.78,23.09h-25.36c-1.21,0-1.58-2.69-1.71-3.79-1.47-12.52,1.05-27.94,1.21-40.8.09-7.49-2.26-15.45-.05-23.59h23.15Z"/>
  <path class="cls-4" d="M441.22,261.34c1.68,1.7-4.95,16.61-6.59,19.27-5.88,2.15-26.45-1.76-29.86,2.11l-31.35,77.6h-24.25c-.56,0-1.82-1.84-1.72-2.76,8.63-25.72,20.77-50.41,28.73-76.42h-29.77c.26-6.9,5.01-13.08,6.61-19.8h88.2Z"/>
  <path class="cls-3" d="M236.16,360.31l.76-5.29,23.7-61.04c4.18-6.16,18.76-.77,25.15-1.85,1.42,1.38-8.25,17.44-8.25,20.9l25.84-21.52c3.4-1.05,29.83-.89,30.92.62.39,1.93-1,2.71-2.18,3.86-4.47,4.31-27.5,20.02-28.48,23.32-.58,11.81,6.04,27.5,5.96,38.75,0,.91-.4,2.25-1.2,2.25h-23.7l-2.77-25.31c-1.03.03-15.28,10.6-16.58,12.05-2.17,2.42-6.06,13.25-7.66,13.25h-21.5Z"/>
  <path class="cls-6" d="M397.12,360.31l25.54-68c5.31.5,10.58-1.25,15.75-1.33,6.84-.11,20.27.43,26.57,2.2,13.17,3.7,19.86,19.72,12.85,31.63-3.5,5.95-16.18,11.79-16.63,13.16-1.35,4.07,4.22,15.14,4.07,19.86-.03,1.03-.77,2.49-1.45,2.49h-19.84c-3.33,0-2.36-19.19-4.36-22.04-1.1-1.57-8.09-1.46-9.79-.87-3.85,1.32-7.5,22.92-11.2,22.92h-21.5Z"/>
  <path class="cls-6" d="M539.34,360.31h-21.5c-.16,0-2.11-1.55-1.22-2.27l24.85-64.33c4.37-4.91,34.57-2.52,41.47-.53,21.85,6.31,20.37,39.04-1.65,43.56-7.81,1.6-27.12-1.31-32.04,1.03-3.28,1.56-7.64,18.46-9.92,22.55Z"/>
  <path class="cls-1" d="M198.13,360.31c-.5-.14-2-1.67-1.49-2.55l25.07-64.98c7.81-3.26,15.28-.46,23.28-.65l-.08,2.66-25.83,65.52c-5.62-.99-16.06,1.35-20.95,0Z"/>
  <path class="cls-1" d="M477.6,360.31l24.86-67.03c2.27-3.72,22.65-2.49,23.62-1.09l-.18,2.41c-4.05,6.95-23.24,65.71-26.8,65.71h-21.5Z"/>
  <path class="cls-2" d="M582.34,355.91c3.35-1.46.45-5.64,5.5-4.4l-1.65,8.8-1.1-3.3-2.74,3.31-1.67-4.41-1.64,4.4v-8.79s3.31,4.39,3.31,4.39Z"/>
  <path class="cls-7" d="M577.92,351.53c.47,1.81-1.91.5-2.22,1.8-.5,2.05.86,5.22-.52,6.99-2.64-1.8-1.13-4.8-1.64-6.97-.31-1.34-2.69.01-2.22-1.81h6.6Z"/>
  <path class="cls-5" d="M438.17,308.88c3.48-3.49,23.15-2.27,17.93,8.54-1.96,4.06-17.77,4.41-20.44,2.78-1.77-1.08,1.56-10.38,2.51-11.33Z"/>
  <path class="cls-5" d="M555.87,320.72c1.24-9.98,2.09-15,13.53-12.93,4.95.9,7.73,3.6,6.12,8.86-1.86,6.06-14.77,3.63-19.64,4.06Z"/>
</svg>