<?xml version="1.0" encoding="UTF-8"?>
<svg id="Layer_1" data-name="Layer 1" xmlns="http://www.w3.org/2000/svg" viewBox="0 0 598.91 601.53">
  <defs>
    <style>
      .cls-1 {
        fill: #f1e8ec;
      }

      .cls-2 {
        fill: #d02138;
      }

      .cls-3 {
        fill: #d02137;
      }

      .cls-4 {
        fill: #d2233b;
      }

      .cls-5 {
        fill: #d02238;
      }

      .cls-6 {
        fill: #d1223a;
      }

      .cls-7 {
        fill: #eed7d8;
      }

      .cls-8 {
        fill: #f0d7d9;
      }

      .cls-9 {
        fill: #d12239;
      }
    </style>
  </defs>
  <path class="cls-3" d="M3.54,231.91c45.05-8.03,38.8,14.26,52.58,46.64,3.38.06,15.55-44.49,18.06-46.11,4.96-3.2,26.54,1.12,34.52-.52v126.2c0,4.11-25.09,13.89-31.16,13.59v-69.9l-12.59,32.1c-19.93,30.6-14.03-16.52-30.25-24.33v93.19c0,.52-6.37.53-9.68,3.75-6.86,6.68-13.05,14.78-21.48,19.54v-194.15Z"/>
  <path class="cls-2" d="M541.05,231.91v54.36c24.47-27.38,12.45-65.41,62.3-54.34,3.62,3.25-29.81,60.71-30.52,68.65-.64,7.12,22.75,21.53,22.75,38.11v87.37c-7.39-6.77-29.61-23.63-33.04-31.14-9.03-19.81,11.12-63.01-21.49-69.82v58.25c-4.92-4.37-33.26-14.3-34.42-16.15-3.43-5.47-2.33-122.13-.09-128.92,3.55-10.81,24.98-5.22,34.51-6.37Z"/>
  <path class="cls-9" d="M178.88,340.64c-1.91-1.96.37-26.46-24.77-11.83-4.98,2.9-1.24,12.56-6.28,17.8-2.8,2.92-29.81,10.7-31.33,9.52,12.82-32.98,8.58-86.68,20.22-117.65,3.94-10.5,39.66-12.67,47.95,5.07,3.39,7.25,25.11,82.98,24.71,87.5-.39,4.43-29.38,10.73-30.49,9.59Z"/>
  <path class="cls-9" d="M369.67,237.73c3.65-11.74,61.12-4.52,70.07,3.91,19.7,18.56-4.12,42.96-3.11,49.7.57,3.81,7.6,10.81,9.3,17.94,2.76,11.58,1.58,23.5,1.63,35.24-4.98-.54-29.86-2.96-30.95-4.07-4.51-4.58,10.03-52.04-19.65-42.55l-.05,38.85c-5.31-5.92-27.23-2.51-27.23-3.88,0-19-3.86-82.71,0-95.14Z"/>
  <path class="cls-5" d="M241.16,282.4c5.49,6.47,6.8-1.49,8.21-5.39,9.3-25.83-4.42-52.24,38.5-45.08-6.29,12.75-16.03,93.48-19.62,96.89-1.47,1.39-33-1.01-40.29,4.31l-27.96-97.46c46.86-23.93,31.99,35.93,41.16,46.73Z"/>
  <path class="cls-6" d="M352.14,231.91c7.13,2.21,6.25,16.66,5.86,23.3-18.79,2.5-40.83-9.79-35.09,15.52h23.41s.05,17.19.05,17.19l-23.45,2.26c-5.75,25.29,16.3,13.05,35.09,15.49l-.02,23.32h-62.32v-97.08c14.76,2.79,44.14-3.83,56.48,0Z"/>
  <path class="cls-2" d="M311.24,429.94c-4.32-7.32-9.62-7.8-7.2-20.46,1.45-7.6,19.7-34.73,26.63-41.66l58.47,104.79c-14.4-2.3-39.39,3.66-51.96-.58-6.41-2.16-7.56-9.94-10.36-14.91-10.33-3.7-15.52-16.37-15.58-27.18Z"/>
  <path class="cls-9" d="M490.42,231.91v128.14l-31.38-9.99c-1.68-9.87-1.36-105.32.77-111.78,3.39-10.32,21.63-5.55,30.62-6.37Z"/>
  <path class="cls-4" d="M229.45,472.62c6.51-10.57,43.19-81.48,48.69-81.43,4.87,5.14,13.07,16.53,11.78,23.53-.99,5.38-32.53,56.27-35.76,57.33-7.15,2.34-17.02-.06-24.71.57Z"/>
  <path class="cls-6" d="M307.35,437.71c9.21,2.42,13.43,17.69,15.58,27.18.08,1.28-.2,2.64,0,3.88.27,2.22.35,4.01-.25,4.28-10.49,4.67-42.4,1.66-54.28-.39-.36-9.18,23.23-34.21,23.42-46.59,4.7-3.66,13.32,8.37,15.53,11.64Z"/>
  <path class="cls-8" d="M326.82,457.13c-3.84,1.19-4.11,4.27-3.9,7.77-8.47-6.14-10.81-20.12-15.58-27.18l3.9-7.77c5.4,9.14,10.37,17.94,15.58,27.18Z"/>
  <path class="cls-8" d="M322.93,468.78c.07.43,5.84,1.82,3.88,7.74-15.84-1.01-33.11,1.46-48.73.08-4.24-.38-9.45,1.88-9.68-3.94,17.23-2.1,39.64,4.81,54.53-3.88Z"/>
  <path class="cls-1" d="M167.11,282.37l2.17,19.5c-17.18,11.12-14.65.25-10.01-13.74,1.75-5.28-2.57-6.99,7.83-5.76Z"/>
  <rect class="cls-7" x="396.92" y="255.19" width="19.51" height="19.45"/>
</svg>