<?xml version="1.0" encoding="UTF-8"?>
<svg id="Layer_1" data-name="Layer 1" xmlns="http://www.w3.org/2000/svg" viewBox="0 0 598.91 601.53">
  <defs>
    <style>
      .cls-1 {
        fill: #ee303c;
      }

      .cls-2 {
        fill: #06a958;
      }

      .cls-3 {
        fill: #fde3e2;
      }

      .cls-4 {
        fill: #ef3744;
      }

      .cls-5 {
        fill: #24ac60;
      }

      .cls-6 {
        fill: #0daa59;
      }

      .cls-7 {
        fill: #fcd9d8;
      }

      .cls-8 {
        fill: #fcd6d3;
      }

      .cls-9 {
        fill: #fff;
      }

      .cls-10 {
        fill: #fde5e4;
      }

      .cls-11 {
        fill: #f04d56;
      }

      .cls-12 {
        fill: #f8aeb4;
      }

      .cls-13 {
        fill: #fcd4d3;
      }

      .cls-14 {
        fill: #fdeae9;
      }

      .cls-15 {
        fill: #feebe9;
      }

      .cls-16 {
        fill: #fde3e1;
      }

      .cls-17 {
        fill: #fef0ef;
      }

      .cls-18 {
        fill: #ed1d32;
      }

      .cls-19 {
        fill: #f04e52;
      }

      .cls-20 {
        fill: #fde4e3;
      }

      .cls-21 {
        fill: #fde7e5;
      }

      .cls-22 {
        fill: #fde6e3;
      }

      .cls-23 {
        fill: #fef1f0;
      }

      .cls-24 {
        fill: #feffff;
      }

      .cls-25 {
        fill: #ef444d;
      }

      .cls-26 {
        fill: #feeae9;
      }

      .cls-27 {
        fill: #1eac5e;
      }
    </style>
  </defs>
  <path class="cls-2" d="M3.99,355.66c-.24-58.16.18-116.46,0-174.63h591.16c-.18,58.16.24,116.47,0,174.63l-1.95,5.54H7.43l-3.44-5.54Z"/>
  <path class="cls-18" d="M595.15,355.66c-.09,21.21.06,42.54,0,63.75H3.99c-.06-21.21.09-42.54,0-63.75h591.16Z"/>
  <path class="cls-9" d="M502.52,209.54c88.45-9.36,66.49,110.92-17.49,113.03-80.53,2.02-57.67-105.08,17.49-113.03Z"/>
  <path class="cls-9" d="M422.26,319.62h-47.4l-5.6-30.49c-7.45,1.36-9.47,30.49-11.13,30.49h-39.04l26.71-108.26c32.24,4.1,89.99-15.65,84.81,34.82-2.53,24.64-27.35,29.93-27.6,33.2-.17,2.22,17.73,33.99,19.26,40.24Z"/>
  <path class="cls-9" d="M79.28,319.62h-39.04l26.71-108.26c21.69,3.33,68.71-8.64,82.1,12.56,13.64,21.61-6.02,57.03-29.97,61.81-28.92,5.77-36.61-10.31-39.8,33.89Z"/>
  <path class="cls-24" d="M243.8,211.52c1.1,1.08-4.67,29.21-5.84,30.22-3.89,3.34-30.15-4.63-35.95,4.47-1.33,6.72,5.41,3.94,9.71,4.12,6.96.29,14-.22,20.93.02-2.74,6.19-3.88,23.77-6.89,27.77-7.16,9.5-38.77-7.94-32.15,13.78l33.47.04c-5.25,4.09-4.16,27.69-5.58,27.69h-75.29l25.1-108.1h72.5Z"/>
  <path class="cls-9" d="M335.82,211.52c-.86,4.62-4.48,31.97-5.69,33.14-2.09,2.02-19.15-3.17-23.66,2.82-5.93,7.88-13.2,67.59-17.87,70.93-5.48,3.92-30.75-.36-39.22,1.18-2.66-2.49,16.18-59.92,16.76-70.68.45-8.47-15.03-2.43-19.56-4.15l5.58-33.25h83.65Z"/>
  <path class="cls-15" d="M296.77,372.3c-4.49,15.38-1.97,45.62-25.11,35.98,1.8-20.24-3.83-39.62,25.11-35.98Z"/>
  <path class="cls-17" d="M129.46,375.05c-4.01,4.51-7.83-10.89-13.91-5.51-3.57,3.16,9.44,11.84,10.63,15.81,6.2,20.79-26.47,20.79-21.78.82,7.76-2.3,5.37,4.83,8.19,6.99,3.96,3.03,8.52-1.53,8.47-2.84-.08-2.03-12.33-9.73-13.48-14.44-5.12-20.96,31.11-11.2,21.89-.82Z"/>
  <path class="cls-26" d="M179.63,411.1c-7.3,1.11-5.69-1.29-5.64-6.99s3.53-22.32,6.21-27.34c4.99-9.36,27.83-5.11,16.95,17.07-4.82,9.83-19.42,2.32-17.51,17.26Z"/>
  <path class="cls-20" d="M207.95,400.43c-.61.52-7.68,21.1-8.68,6.55-.39-5.57,10.76-25.88,8.3-34.72,9.4,2.71,19.58-4.43,19.66,9.63.12,23.97-15.66,15.5-19.27,18.55Z"/>
  <path class="cls-3" d="M394.39,372.28c1.01,6.62-1.62,36.39-11.15,27.71-1.45-1.33,4.74-17.69,2.75-22.16-7.93,1.13-6.07,31.38-16.69,22.16-.98-.85,5.72-23.57,6.91-24.98,4.05-4.8,12.65-2.29,18.19-2.73Z"/>
  <path class="cls-23" d="M341.38,377.82c-9.25,2.5-4.19-7.18-5.57-8.3-11.09-9.03-19.49,31.21-8.36,26.37,12.68-16.07,15.71-.05,3.6,3.55-18.19,5.4-17.63-6.62-14.16-22.39,3.74-17.01,27.81-19.81,24.48.78Z"/>
  <path class="cls-22" d="M436.2,386.15c-2.15,2.79-7.14,4.24-10.62,4.49-.45.03,7.8-3.45,7.83,1.05-1.16,2.41.45,6.38-4.52,7.97-21.39,6.86-17.24-23.83-7.57-26.97,12.09-3.92,15.82,2.43,14.88,13.46Z"/>
  <path class="cls-10" d="M257.76,399.99c-2.64-4.97,8.74-21.87-1.38-22.18l-4.22,22.21c-14.24,8.86-3.95-26.43-2.66-27.73.72-.72,17.94,0,19.19,4.49.79,2.82-2.31,26.03-10.93,23.21Z"/>
  <path class="cls-17" d="M366.5,386.13l-13.97.02.04,11.07c14.75-13.51,15.48,2.94,1.38,3.03-27.4.17,9.06-53.88,12.55-14.13Z"/>
  <path class="cls-14" d="M159.28,372.71c18.32-5.35,17.18,30.85-3.23,27.45-13.43-2.24-5.96-24.77,3.23-27.45Z"/>
  <path class="cls-8" d="M480.84,383.37c-.76.7-6.16-.4-8.38.04-1.24,4.59,5.04,1.36,5.71,4.37,2.92,13.11-12.35,18.61-19.65,8.04-1.03-11.29,14.56,7.74,13.86-2.73-.19-2.87-20.05-12.49-5.5-19.41,11.64-5.54,17.46,6.44,13.94,9.7Z"/>
  <path class="cls-16" d="M411.08,366.76c.42.33,3.06,8.56,2.19,10.41-.25.53-3.61-.15-5.24,4.73-3.19,9.59,4.46,21.78-6.65,18.08-6.71-2.23,1.39-39.78,9.7-33.22Z"/>
  <path class="cls-21" d="M146.18,366.76c.42.33,3.09,8.6,2.18,10.42-.28.57-3.9.31-4.78,2.71-2.35,6.33-.13,13.04-.15,18.68-.01,3.03-10.44,2.92-10.11-4.28.14-2.94,4.95-33.59,12.86-27.53Z"/>
  <path class="cls-7" d="M458.49,372.3c1.59,7.04-6.04,6.19-8.3,10.43s-2.21,16.7-2.85,17.3c-.3.28-8.03.25-8.33-.03-1.04-.96,4.67-26.7,5.66-27.71.48-.49,10.64,2.33,13.82.01Z"/>
  <path class="cls-13" d="M241,372.3l-2.78,27.73c-13.64,4.31-7.66-13.38-4.02-22.18,1.81-4.39-.36-6.81,6.81-5.55Z"/>
  <path class="cls-12" d="M494.76,366.77c.62.47-1.11,15.08-6.93,13.82-7.96-1.73-1.42-20.09,6.93-13.82Z"/>
  <path class="cls-11" d="M436.2,386.15c-.1,1.14-2.03,3.96-2.79,5.54-4.44,1.85-16.12,8.63-13.93-1.34,1.05-4.8,12.22-4.71,16.72-4.2Z"/>
  <path class="cls-6" d="M496.81,245.26c35.54-7.28,22.79,53.2-14.14,40.64-16.97-5.77-2.73-37.18,14.14-40.64Z"/>
  <path class="cls-27" d="M391.58,242.03c1.79,13.83-6.36,18.33-19.51,16.59,3.78-13.11,3.21-19.05,19.51-16.59Z"/>
  <path class="cls-5" d="M93.23,258.62c1.07-16.87,6.16-23.25,22.29-12.37-2.13,13.22-10.44,13.57-22.29,12.37Z"/>
  <path class="cls-25" d="M288.4,377.85c1.46,1.68-2.84,18.96-8.32,19.39-2.98-3.96,2.56-26.04,8.32-19.39Z"/>
  <path class="cls-19" d="M193.6,377.85c-.4,4.97-3.2,23.66-11.13,16.6-1.16-1.03,3.67-19.27,11.13-16.6Z"/>
  <path class="cls-4" d="M218.69,377.85c.42,6.56,1.64,17.3-8.34,16.6,1.19-4.71-.3-18.68,8.34-16.6Z"/>
  <path class="cls-1" d="M165.71,377.85c.52,7.08-.95,16.27-8.32,19.39.04-7.32-2.88-19.7,8.32-19.39Z"/>
</svg>