<?xml version="1.0" encoding="UTF-8"?>
<svg id="Layer_1" data-name="Layer 1" xmlns="http://www.w3.org/2000/svg" viewBox="0 0 598.91 601.53">
  <defs>
    <style>
      .cls-1 {
        fill: #f8f8f7;
      }

      .cls-2 {
        fill: #fbfbfa;
      }

      .cls-3 {
        fill: #f6f6f6;
      }

      .cls-4 {
        fill: #f2f2f3;
      }

      .cls-5 {
        fill: #3f4574;
      }

      .cls-6 {
        fill: #3c4675;
      }

      .cls-7 {
        fill: #545d86;
      }

      .cls-8 {
        fill: #565f87;
      }

      .cls-9 {
        fill: #3f4675;
      }

      .cls-10 {
        fill: #272c64;
      }

      .cls-11 {
        fill: #f7f7f7;
      }

      .cls-12 {
        fill: #f8f8f8;
      }

      .cls-13 {
        fill: #f5f5f5;
      }

      .cls-14 {
        fill: #e91f2d;
      }
    </style>
  </defs>
  <path class="cls-14" d="M77.15,220.17l508.85-.91c14.39.15,11.53,10.42,8.25,20.84-3.58,11.39-43.08,86.71-50.59,97.26-4.47,6.28-9.33,11.58-17.12,13.71l-508.96.8c-12.27.49-12.43-8.96-9.27-18.76,4.33-13.44,39.69-79.38,48.64-93.08,5.58-8.55,9.93-15.97,20.21-19.86Z"/>
  <path class="cls-10" d="M408.3,240.95l-6.16,18.45c2.6,2.48,51.3-1.26,60.04.18,7.34,1.21,12.96,7.86,15.6,8.03,3.53.23,10.72-6.37,16.12-7.5,39.33-8.23,52.72,14.21,31.21,46.49-22.96,34.47-59.24,22.2-93.66,21.13-18.99-.59-39.83,11.67-38.63-22.16-9.05,3.04-7.62,17.23-13.57,21.83-10.3,7.95-64.67.52-80.24.01-5.94-.19-13.13,3.64-21.93,2.93-11.82-.95-20.25-11.91-21.6-11.92-1.14,0-7.04,5.77-10.82,7.18-25.84,9.64-47.48,2.11-72.57,2.13-23.53.02-57.21,11.16-75.58-6.78-2.52,16.99-30.1,6.5-43.28,9.22l45.39-89.27c17.52,1.83,52.06-5.61,64.51,9.02,3.46,4.07,4,12.57,6.06,12.76,8.02.75,20.44-5.35,33.63-3.09,7.74,1.32,13.78,8.89,18.14,8.51s10.75-6.7,16.66-7.99c25.07-5.47,30.7,10.28,36.32,10.75,3.64.3,15.95-9.46,22.34-10.75,7.39-1.49,20.94.99,24.95-1.33,1.77-1.02,8.33-17.82,11.42-17.82h75.65Z"/>
  <path class="cls-2" d="M157.45,254c10.47,10.04-8.37,32.47-20.86,33.14,10.21,2.35-2.04,32.24-3.43,33.45-2.41,2.1-19.18-.69-24.35.34l6.16-24.58c-20.89-8.67-19.01,20.23-25.2,24.1-4.11,2.57-18.2-.66-24.21.47,6.72-8.19,31.13-68.16,34.45-70.24,3.96-2.47,52.6-1.3,57.42,3.32Z"/>
  <path class="cls-3" d="M284.78,299.42l.03,9.2c10.79-2.74,18.72-8.62,30.84-6.12-10.04,28.91-68.52,29.57-46.91-11.4,12.99-24.62,60.18-35.53,57.8-9.81-2.32,25.07-23.19,17.33-41.76,18.13Z"/>
  <path class="cls-12" d="M417.57,284.02c-.34-12.18,41.95-25.51,51.18-12.44,3.37,4.77-16.64,48.92-19.27,49.54-6.53,1.53-14.34-2.49-20.66-2.2-8.32.38-16.82,6.24-26.5,1.84-1.88-19.11,4.63-24.94,21.43-30.59,1.05-2.55-1.01-4.6-6.18-6.15Z"/>
  <path class="cls-1" d="M158.2,284.02c-.45-16.26,60.97-27.96,50.89-3.2-2.15,5.28-16.8,39.8-18.97,40.31-6.53,1.53-14.34-2.49-20.66-2.2-8.32.38-16.81,6.24-26.5,1.84-1.88-19.11,4.63-24.94,21.43-30.59,1.05-2.55-1.01-4.6-6.18-6.15Z"/>
  <path class="cls-12" d="M371.25,265.56c-17.93,13.58-16.13,66.12-52.49,55.35l27.77-53.84-18.49-1.53c-1.59-1.41,5.87-14.13,6.81-14.68,7.29-4.31,49.32,1.75,61.1-.66l-6.17,12.28c-3,6.15-8.38,8.43-11.31,1.3l-7.21,1.78Z"/>
  <path class="cls-13" d="M248.32,289.5c-2.18-1.3-2.26-10.29-8.22-8.53-10.94,2.34-24.91,35.44-7.78,26.15,9.28-5.04,12.03-11.55,27.78-7.69-9.49,27.32-68.6,35.73-52.17-4.35,6.14-14.97,25.09-29.14,41.4-29,29.12.24,17.09,34.19-1.01,23.42Z"/>
  <path class="cls-11" d="M525.64,287.1c-8.29,4.67-23.06-6.28-25.82-5.83-6.44,1.04-23.44,25.27-12.74,27.36,3.34.65,18.36-15.69,29.27-9.2-10.01,32.48-72.07,31.99-45.78-10.27,13.35-21.46,57.2-38.28,55.07-2.06Z"/>
  <path class="cls-4" d="M389.78,262.48c.28.18-1.22,5.47,2.03,6.29,5.84,1.48,31.62-9.02,28.79,1.34-4.1,15-18.46,7.98-27.65,15.54-9.01,7.41-11.07,32.74-23.24,35.3-3.61.76-15.39,2.76-13.95-4.65,1.58-8.14,17.49-35.28,22.14-45.67s-1.04-3.96-6.64-5.07c4.06-3.07,15.29-5.16,18.53-3.08Z"/>
  <path class="cls-7" d="M158.2,284.02l30.88-3.05c-3.96,8.24-16.64,6.49-24.7,9.2-1.69-1.93-6.11-3.65-6.18-6.15Z"/>
  <path class="cls-8" d="M417.57,284.02l30.88-3.05c-3.96,8.24-16.64,6.49-24.7,9.2-1.69-1.93-6.11-3.65-6.18-6.15Z"/>
  <path class="cls-5" d="M133.49,265.58c2.19,12.95-11.04,16.03-21.59,15.35-.22-17.57,6.05-16.6,21.59-15.35Z"/>
  <path class="cls-6" d="M439.16,299.42c4.78,7.11-13.67,10.82-15.41,9.2-4.96-4.62,9.62-12.41,15.41-9.2Z"/>
  <path class="cls-9" d="M179.8,299.42c4.78,7.11-13.67,10.82-15.41,9.2-4.96-4.62,9.62-12.41,15.41-9.2Z"/>
</svg>