<?xml version="1.0" encoding="UTF-8"?>
<svg id="Layer_1" data-name="Layer 1" xmlns="http://www.w3.org/2000/svg" viewBox="0 0 598.91 601.53">
  <defs>
    <style>
      .cls-1 {
        fill: #fefdfd;
      }

      .cls-2 {
        fill: #9c1e24;
      }

      .cls-3 {
        fill: #9d1e25;
      }

      .cls-4 {
        fill: #9c1d24;
      }

      .cls-5 {
        fill: #cad958;
      }

      .cls-6 {
        fill: #9d1e24;
      }

      .cls-7 {
        fill: #982025;
      }

      .cls-8 {
        fill: #9b1d25;
      }

      .cls-9 {
        fill: #9b1d23;
      }

      .cls-10 {
        fill: #9c1d25;
      }

      .cls-11 {
        fill: #fefcfb;
      }

      .cls-12 {
        fill: #9b1d24;
      }

      .cls-13 {
        fill: #9e1e24;
      }

      .cls-14 {
        fill: #9b1e25;
      }

      .cls-15 {
        fill: #9f1f25;
      }

      .cls-16 {
        fill: #9c1e25;
      }

      .cls-17 {
        fill: #9d1f25;
      }

      .cls-18 {
        fill: #f5abad;
      }

      .cls-19 {
        fill: #fefcfc;
      }

      .cls-20 {
        fill: #991e24;
      }

      .cls-21 {
        fill: #d42127;
      }

      .cls-22 {
        fill: #fefdfc;
      }
    </style>
  </defs>
  <path class="cls-7" d="M596.9,340.15c-33.46,4.48-67.13,8.88-100.83,11.57-135.64,10.84-280.82,10.48-416.3-2.89-23.01-2.27-46.02-5.65-68.92-8.68,8.29-29.49,8.31-63.03,0-92.59,40.1-5.62,80.66-10.23,121.14-13.02,125.58-8.66,257.3-8.19,382.93,2.89,24.7,2.18,54.2,4.41,78.32,8.69,6.45,1.15,1.84,5.61,1.13,9.78-4.77,27.88-5.11,56.89,2.52,84.25Z"/>
  <path class="cls-5" d="M592.56,250.46c-7.49,28.35-7.05,58.42-.01,86.79-23.37,3.03-46.88,6.46-70.36,8.69-47.08,4.46-97.83,7.57-144.99,8.75-120.98,3.03-242.23-1.81-361.98-17.44,7.63-28.24,7.64-58.57,0-86.79,29.07-4,58.49-7.72,87.78-10.13,131.63-10.85,272.85-11,404.69,0,28.34,2.36,56.84,5.82,84.88,10.13Z"/>
  <path class="cls-20" d="M588.2,334.36c-34.86,4.93-70.03,8.96-105.19,11.57-97.29,7.22-195.74,7.34-293.02,2.92-56.98-2.59-114.06-5.73-170.43-14.5,5.6-26.27,6.58-53.91-.1-80.12.27-1.85,12.75-3.23,15.51-3.61,141.26-19.48,308.62-19.39,450.94-8.85,29.73,2.2,70.04,4.41,98.6,10.16,1.59.32,3.04.45,3.57,2.3.56,1.96-3.9,22.49-4.22,27.33-1.17,17.75,1.18,35.44,4.34,52.79Z"/>
  <path class="cls-21" d="M583.85,256.24c-5.11,24.82-5.35,50.39,0,75.23-25.87,2.58-51.7,6.47-77.63,8.68-95.79,8.16-192.58,8.72-288.6,5.74-64.75-2.01-129.39-5.8-193.71-14.42,6.25-24.96,4.11-49.21,1.37-74.4,25.47-4.39,51.81-7.37,77.7-9.51,43.08-3.56,87.43-6.23,130.48-7.31,117.06-2.94,234.41,1.73,350.38,15.99Z"/>
  <path class="cls-1" d="M322.74,299.64c-.62-3.38-2.65-7.1-1.46-11.58,2.45-.42,13.95.58,14.52.01,1.19-1.19-1.94-18.73,1.38-21.05,7.39-5.16,48.06-2.14,58.51-.62,1.66.35.83,2.63,1.03,2.86,9.37,4.8-3.97,19.48-7.98,7.24-.3,1.13-.79,2.82-1.66,2.89-4.04.33-34.66,1.03-36.14,0-1.05-.73-1.79-1.61-2.08-2.89,2.59.83,3.71,3.73,3.36,8.7,2.97-.43,5.18.12,6.8,2.88,10.73.31,18.44-1.6,27.56,1.45,4.81.8,3.67,10.69.1,12.65l-34.78.37-.21,5.29c13.81.93,27.58.26,41.32-2.03l2.27,2.54c.01.26,1.32,1.56,1.45,2.89,4.56-.87,3.53,9.25,1.43,10.47-8.06,4.68-50.62,6.07-57.21.64-.84-.7-1.56-1.54-2.24-2.44-.08-.13-2.52.58-2.92-.95-.66-2.52.14-7.47.02-10.63-2.14-5.07-5.85-7-11.11-5.79l-1.94-2.89Z"/>
  <path class="cls-1" d="M306.78,267.81c4.99,1.28,3.93,12.36-1.39,12.99l-43.49-1.33c-.99,3.38.91,6.25,5.71,8.6,5.7.2,24.56-1.99,26.62-1.54,1.5.33.81,2.9.94,2.98,4.81.8,3.67,10.68.11,12.65l-33.36.37-.18,5.29c13.81.93,27.58.26,41.32-2.03l2.27,2.54c.05,1.33,1.42,2.56,1.45,2.89,4.72.88,3.4,6.76.73,9.71-5.97,6.57-47.37,5.69-56.39,2.6-1.72-.59-2.84-2.19-3.81-3.63-1.06-4.76-1.19-6.42-1.45-11.58-2.31-.87-3.38-2.8-3.22-5.79-5.12.98-8.4.02-9.83-2.89-.08-.13-2.52.57-2.92-.95-.75-2.85.51-7.43.02-10.64h15.96s0-21.7,0-21.7l31.03-2.75c11.05,1.64,18.97,1.04,29.89,4.2Z"/>
  <path class="cls-11" d="M63.08,299.64c-.07-.23-1.96-.7-2.14-1.5-.96-4.44-1.93-29.44.6-31.14,4.83-3.26,51.32-2.64,58.57-.63,1.63.45.86,2.81.99,2.89,4.77.42,3.55,8.71.37,11.05-1.02.75-10.56.26-13.08.1-10.35-2.66-20.58-2.69-30.72-.94-.83,3.41.59,6.28,4.27,8.59,7.85-4.48,19.28-2.83,28.07-1.51,4.4-.93,7.34-1.52,11.1,1.51v2.89l2.91,1.39c.49,4.5,1,28.04-2.27,29.84-7.9,4.33-50.78,5.73-56.73.13-.75-.7-1.36-1.54-1.93-2.43-1.4-7.29-.42-5.93,0-11.58l2.26-2.41c5.78,1.12,36.42,4.53,39.47,2.13.87-.69.49-5.36.18-5.51h-39.81s-2.1-2.89-2.1-2.89Z"/>
  <path class="cls-19" d="M166.07,266.36l2.9,1.25v17.56c2.7-.43,4.52.27,5.8,2.89,4.62.16,25.29.76,27.63-.67l-.08-22.49c5.3-1.17,10.25.86,14.51,1.45,1.13,0,2.87.28,2.9.97.34,7.02.83,54.87-1.12,56.96-1.84,1.97-13.14,2.86-13.39-1.5-2.22-6.71-2.57-5.75-2.9-14.47-2.06-1.09-3.24-3.02-3.54-5.8h-29.71s.19,14.27.19,14.27c.28,7.89-11.99,13.69-14.81,6-.08-.13-2.53.57-2.92-.94-.72-2.73.13-8.61.02-12.08-2.36-1.49-3.43-3.9-3.22-7.24-5.12.98-8.4.02-9.83-2.89-.08-.13-2.5.58-2.91-.95-.57-2.1-.47-10.11,1.43-11.44l14.54.81v-23.15c5.31-1.17,10.23.85,14.51,1.45Z"/>
  <path class="cls-22" d="M547.58,267.81c4.4.06,3.08,10.85,1.53,13.21l-37.9,26.89c5.05-.35,8.95.76,11.71,3.31,3.99-.18,23.44-3.43,24.4-2.57.64.57.11,2.46.26,2.57,4.16.65,3.88,8.47,1.49,10.87-4.53,4.54-51.69,4.09-58.56,1.19l-.95-3.38c-.08-.13-2.5.58-2.92-.95-.74-2.69-.3-8.92,1.36-11.46,1.86-2.83,24.28-18.67,29.12-22.33-.83-2.84.78-5.09,4.82-6.76.03-1.46-24.86-.05-28.28,1.46l-4.11-1.94c-.08-.13-2.53.57-2.92-.94-2.29-8.73-.53-10.58,6.73-11.88,18.03-3.24,37.41-2.65,54.22,2.7Z"/>
  <path class="cls-22" d="M472.15,267.81c5.03,1.37,3.99,12.75-1.8,12.93-7.1-.96-13.76-.98-19.97-.06l-.14,41.69c-1.72,4.26-11.52,5.19-12.91.43-.09-.14-1.96.37-2.53-.28-1.24-1.41-.18-31.92-.37-37.34-1.87-1.07-3.11-2.91-3.74-5.52l-14.34,1.03-2.24-2.74c-.08-.13-2.52.57-2.92-.95-.34-1.28-.27-10.18.1-10.56,1.14-1.17,28.56-3.1,32.58-3.07,8.56.06,20.22,1.88,28.27,4.44Z"/>
  <path class="cls-17" d="M472.15,267.81c2.42.77,8.38,1.22,9.52,2.81,1.97,2.76-.09,13.45.64,17.45l-24.66-2.9v46.31c-3.09-.54-19.61.74-20.32,0-.61-.63.65-7.71,0-8.69h10.16s-.02-46.31-.02-46.31l24.67,1.46v-10.14Z"/>
  <path class="cls-16" d="M121.1,290.96h10.16s-.16,37.47-.16,37.47c-10.4,3.45-60.61,5.58-66.61-.53-2.48-2.53-.93-5.5-1.41-8,18.55,4.51,38.57,3.92,57.18.16,1.63-1.14.84-24.72.84-29.1Z"/>
  <path class="cls-16" d="M396.72,311.22l10.15-1.45c-1.17,10.79,4.88,17.61-8.13,20.1-8.71,1.67-55.31,3.49-59.37-2.69-1.48-2.25-.17-6.41-.67-7.28,19.01,4.15,38.86,3.82,57.86-.15.5-.61.32-6.88.16-8.53Z"/>
  <path class="cls-16" d="M547.58,311.22c1.79,1.26,9.73-1.92,10.14-1.44-.38,4.64.57,9.96,0,14.47,3.39,2.33,2.63,3.68-1.45,2.89-7.85,5.08-38.48,5.13-48.57,4.32-2.27-.18-17.49-2.23-18.14-2.88-.68-.68.65-7.64-.01-8.67,7.5,3.58,54.69,3.39,57.95-.07.71-.75-.3-6.72.08-8.61Z"/>
  <path class="cls-14" d="M522.92,311.22c-5.52.25-11.13-.19-16.68,0l-.72-2.87,41.73-29.27.32-11.28c2.37.75,7.94.53,9.49,2.84,1.34,2,1.12,12.16-.05,14.54-2.46,5-29.32,19.35-34.1,26.03Z"/>
  <path class="cls-8" d="M306.78,311.22l8.7-1.45v18.8c-21.8,3.65-44.01,4.42-65.79.1-.7-.41-1.97-6.94-2.38-8.76,16.26,3.14,34.93,4.45,51.34,1.29,7.45-1.44,8.79-1.98,8.14-9.97Z"/>
  <path class="cls-10" d="M216.84,266.36c2.7.37,5.91-.28,8.71,0v65.13c-3-.52-17.99.73-18.8-.08-.31-.31-.82-6.5-1.52-8.61h11.61s0-56.43,0-56.43Z"/>
  <path class="cls-16" d="M396.72,269.25c.33.37,7.1-2.01,9.52,1.36,1.96,2.73-.09,13.47.63,17.45-14.26-2.22-28.35-3.47-42.85-2.9-2.79.11-5.82-1.49-5.01,2.89-3.37-.1-6.79.08-10.16,0v-11.58h39.9c1.31,0,5.24,2.73,7.97,1.45v-8.69Z"/>
  <path class="cls-12" d="M154.47,322.79c17.72,3.36,10.16-11.7,11.6-23.16h36.28c.08,2.88-.12,5.8,0,8.69h-27.56v23.15c-3.09-.54-19.61.74-20.32,0-.61-.63.66-7.69,0-8.69Z"/>
  <path class="cls-8" d="M306.78,267.81c2.8.81,8.38,1.15,8.7,1.45.69.64-.49,15.9,0,18.81-13.71-1.74-27.49-3.91-41.41-2.98-2.7.18-5.43-.35-6.45,2.98-2.89-.1-5.82.08-8.71,0v-11.59s47.88,1.46,47.88,1.46v-10.14Z"/>
  <path class="cls-3" d="M295.17,289.51c1.04.69,9.5-.66,10.16,0s-.12,15.74,0,18.82c-7.03,1.44-42.74,5.07-46.34,1.38-.71-.73.3-7.97-.09-10.07l36.28.02v-10.14Z"/>
  <path class="cls-6" d="M386.56,289.51c1.77.59,8.08-.61,8.71,0,.68.65-.17,15.58,0,18.82-7.03,1.44-42.74,5.07-46.34,1.38-.71-.73.3-7.97-.09-10.07l37.73.02v-10.14Z"/>
  <path class="cls-13" d="M63.08,299.64h44.97c-.32,2.82.87,8.05-.64,10.22-2.52,3.64-38.01.46-44.34-1.54.14-1.91.41-7.39,0-8.68Z"/>
  <path class="cls-16" d="M129.81,270.7c-.24,5.57-.86,11.34-1.71,16.65-1.4,1.01-22.24-.48-23.4-3.59-5.87-.47-11.7-1.1-17.47-1.89-.16,4.01-1.92,6.07-5.29,6.19-2.41-.11-4.85.09-7.26,0v-11.59s46.43,1.46,46.43,1.46v-8.69c1.32.79,5.65-1.54,8.7,1.45Z"/>
  <path class="cls-16" d="M489.55,277.94c13.23-3.77,26.99-2.9,40.62-2.88-3.38,4.34-8.77,6.88-13.05,10.11l-27.57,1.45c-.44-1.95.61-7.75,0-8.69Z"/>
  <path class="cls-16" d="M129.81,270.7c3.22,3.16.68,12.61,1.46,17.37-3.37.07-6.79-.1-10.16,0-12.56.35-26.67.56-39.17,0,3.69-4.62-.26-9.34,8.22-9.69,3.6-.15,6.1,2.41,9.04,3.1,1.89.44,4.23-1.06,6.34-.44s3.28,3.59,4.9,3.93c2.36.5,5.04-2.72,5.61-2.67.65.06,3.78,7.69,10.86,4.31-1.26-6.14-.49-10.6,2.9-15.91Z"/>
  <path class="cls-4" d="M414.12,277.94l20.32-1.46c.08,2.88-.11,5.8,0,8.69l-20.31,2.9c-.49-2.17.67-9.12,0-10.13Z"/>
  <path class="cls-2" d="M166.07,266.36c2.7.37,5.91-.28,8.71,0v21.71c-2.9-.1-5.83.08-8.72,0v-21.71Z"/>
  <path class="cls-15" d="M138.51,299.64h13.06c.08,3.36-.11,6.76,0,10.13-18.04,2.63-9.85-4.74-13.06-10.13Z"/>
  <path class="cls-9" d="M232.8,299.64h13.06c.11,2.87-.15,5.8,0,8.68-2.32-.36-12.56.52-13.06,0-.61-.63.65-7.69,0-8.69Z"/>
  <path class="cls-9" d="M322.74,299.64h13.06c.09,2.87-.12,5.8,0,8.68-2.78-.55-9.61.94-11.41-.19-1.4-.88-1.31-6.65-1.65-8.49Z"/>
  <path class="cls-18" d="M557.73,324.24c8.58-1.55,4.45,11.61-1.45,2.89.61-.39,1.37-2.22,1.45-2.89Z"/>
</svg>