<?xml version="1.0" encoding="UTF-8"?>
<svg id="Layer_1" data-name="Layer 1" xmlns="http://www.w3.org/2000/svg" viewBox="0 0 598.91 601.53">
  <defs>
    <style>
      .cls-1 {
        fill: #de275c;
      }

      .cls-2 {
        fill: #ed1d34;
      }

      .cls-3 {
        fill: #c92737;
      }

      .cls-4 {
        fill: #fefdfd;
      }

      .cls-5 {
        fill: #c12229;
      }

      .cls-6 {
        fill: #c52232;
      }

      .cls-7 {
        fill: #c4222c;
      }

      .cls-8 {
        fill: #dd335c;
      }

      .cls-9 {
        fill: #fcfafb;
      }

      .cls-10 {
        fill: #c02228;
      }

      .cls-11 {
        fill: #c0222c;
      }

      .cls-12 {
        fill: #fcfbfb;
      }

      .cls-13 {
        fill: #de3a63;
      }

      .cls-14 {
        fill: #fdfcfc;
      }

      .cls-15 {
        fill: #e81d57;
      }

      .cls-16 {
        fill: #fcfafa;
      }

      .cls-17 {
        fill: #fcf9f8;
      }

      .cls-18 {
        fill: #c2293b;
      }

      .cls-19 {
        fill: #fefefe;
      }

      .cls-20 {
        fill: #cb2635;
      }

      .cls-21 {
        fill: #e81f58;
      }

      .cls-22 {
        fill: #fffdfc;
      }

      .cls-23 {
        fill: #d2212e;
      }

      .cls-24 {
        fill: #fffcfb;
      }

      .cls-25 {
        fill: #fefcfc;
      }

      .cls-26 {
        fill: #fcfcfc;
      }

      .cls-27 {
        fill: #ae2024;
      }

      .cls-28 {
        fill: #d82128;
      }
    </style>
  </defs>
  <path class="cls-2" d="M57.32,3.01l483.68-.46c28.23.42,53.35,19.63,57.62,48.13v497.67c-3.87,26.72-25.37,46-52.21,48.12H59.57c-27.98-.91-51.19-21.55-54.91-49.48l.05-496.27C10.44,23.47,29.56,5.83,57.32,3.01Z"/>
  <path class="cls-25" d="M338.25,317.14c12.1,14.91,32.3,14.07,44.74,0h124.74c-1.24,8.34-4.35,16.42-9.49,23.05H49.46v-6.79s71.12.1,71.12.1l1.49-4.25,95.53.1c1.27-4.28-3.7-11.24,1.35-12.21h119.31Z"/>
  <path class="cls-14" d="M86.06,155.8c0-.68,1.49-5.31,2.19-5.51l71.72.11c3.69.55,2.63-5.09,4.19-5.54l93.37.06c6.04-1.19,4.6-11.08,12.17-10.88l258.88-.02c1.48.41,5.82,19.05,4.89,21.78-37.92,1.33-75.88,1.33-113.89,0-1.69-1.22-3.23-4.77-6.3-6.58-8.57-5.05-17.24-5.06-26.11-.74-4.4,2.14-5.8,5.54-8.27,7.33-96.29,1.28-196.58,1.2-292.86,0Z"/>
  <path class="cls-25" d="M233.85,357.81l-4.07-9.49h263.03c-3.92,6.49-16.07,20.71-23.67,21.75l-403.39-.76-4.09-4.71,73.21-.03c-.57-1.77-1.68-3.4-1.35-5.41,33.36-1.2,66.8-1.66,100.33-1.36Z"/>
  <path class="cls-19" d="M361.29,102.93c17.15-1.19,34.39-1.17,51.52,0,.45,0,.9,0,1.36,0h96.26c4.4,7.11,12.23,13.13,13.56,21.69H102.33c1.63-3.64,5.03-5.01,8.78-5.45,13.26-1.57,61.97,2.93,69.28-1.25,1.53-.87,2.4-3.5,3.28-4.14,33.48-.44,66.92-.9,100.33-1.36,4.12-2.02,8.9-8.43,14.3-9.43,14.65-2.72,46.23.03,62.99-.06Z"/>
  <path class="cls-22" d="M488.74,247.99c-122.29,1.18-249.26,1.28-371.5,0-.74-.53-3.54-4.67-2.7-5.42h77.27s-1.35-5.43-1.35-5.43h84.06c1.2-2.43-9.4-12.2-3.39-12.2h191.17c2.61,0,25.48,17.85,26.44,23.05Z"/>
  <path class="cls-25" d="M454.17,378.15c.55.08,3.88,1.33,3.38,2.69-17.3,9.63-35.44,14.78-55.07,17.47-9.41,1.29-21.52,2.49-30.96,2.94-85.21,4.02-173.54-3.18-259.08,0l-11.46-5.49h74.57c.72-2.65-2.04-3.2-2.71-5.42h104.4c-3.08-4.47-9.76-7.79-14.91-9.51-.39-.51,1.78-2.7,2.03-2.7h189.81Z"/>
  <path class="cls-17" d="M392.48,195.12c14.85,8.1,31.32,12.59,47.02,18.75,1.45.57,4.69,1.12,4.5,2.95H92.84c-.28,0-1.55-5.23-1.35-5.42,9.17-2.05,73.21,2.65,75.93,0,.44-.43-.41-4.21,0-5.43,29.85-.43,59.68-.88,89.48-1.36.04-2.07-5.12-8.31-1.36-9.49h136.94Z"/>
  <path class="cls-4" d="M498.23,94.79H138.94c.9-1.23,3.2-4.8,4.07-5.42,26.72-.59,53.38-1.04,79.99-1.36,31.49-10.11,76.49-.95,110.48-4.09,10.42-.96,23.34-5.7,34.34-7.69,36.13-6.52,97.46-8.92,128.17,14.69,1.57,1.21,2.65,1.37,2.24,3.86Z"/>
  <path class="cls-12" d="M469.76,524.57c-.42-.26-.7-2.27-2.14-2.52-2.02-.35-8.74,3.25-12.29,3.4-20.89.85-20.73-26.12-.78-33.04,4.85-1.68,19.76-2.8,22.03-5.08,3.92-3.95.71-12.14-6.23-7.58-2.65,1.74-2.97,5.51-3.29,5.51h-18.98c3.42-13.76,17.36-18.81,30.37-17.47,32.88,3.39,8.3,36.03,8.95,55.43,13.34-2.47,7.78,4.07,10.74,6.2,3.86,2.78,8.97-.2,9.17-5.24.46-12.06-6.27-33.37-7.53-46.55-.28-2.89-.26-5.77-.18-8.65h17.64c.54,5.8.71,12.45,1.52,18.14.27,1.91.42,9.42,3.21,8.99l12.89-27.12h18.98c-9.44,15.98-16.41,33.47-25.77,49.47-7.34,12.54-18.03,30.96-36.02,23.84-10.52-4.17-5.53-10.65-7.35-16.37-4.92-.51-9.89-.96-14.91-1.36Z"/>
  <path class="cls-24" d="M373.5,163.94c-1.73,9.11-2.45,14.95,2.71,23.05H84.71l-1.36-5.42,75.17.07c1.63-.29-.39-7.32,4.15-6.86l89.33.09c2.24-.6,1.04-10.06,3.54-10.93h117.96Z"/>
  <path class="cls-4" d="M212.15,298.16c6.19,1.14,2.74-10.85,6.1-10.85h114.57v19.66c0,.41,1.72,1.04,1.36,2.03H45.39c-.27,0-.27-5.42,0-5.42h74.57c.27,0,.37-4.25,1.66-5.18,1.08-.78,2.83.01,3.76-.24,28.6-2.11,58.18-1.23,86.77,0Z"/>
  <path class="cls-25" d="M495.52,256.13c1.08.47,10.88,19.8,10.78,21.03-.12,1.59-3.2,1.93-4.62,2.08-28.57,3.06-64.71-.96-93.68-1.47-17.65-.31-36.2,1.94-54.02-.1-14.88-1.7-35.52-13.74-48.28-21.55h189.81Z"/>
  <path class="cls-26" d="M102.33,473.06c-.65-.69,1.72-17.08-9.49-11.55-14.14,6.99,15.25,19.45,18.34,22.35,7.87,7.36,5.16,21.33-.72,29.17-9.37,12.5-35.8,14.77-47.51,5.5-4.22-3.34-11.36-19.67-7.27-22.59,2.17-1.55,19.13-1.96,20.99-.62,1.97,1.41.8,6.15,1.97,8.88,3.06,7.14,15.73,4.73,12.58-5.79-2.15-7.15-21.46-8.02-24.86-19.89-7.96-27.78,27.16-41.64,47.31-29.68,5.98,3.55,12.44,17.13,8.42,22.94-1.12,1.62-19.06,2-19.75,1.28Z"/>
  <path class="cls-14" d="M364.01,524.57l1.5-55.44,17.48-.14c.8,1.89-1.35,4.05-1.35,4.74v23.73c5.7-2.83,15.12-27.08,18.52-28.25,4.09-1.41,12.06.55,16.74-.22-.2,6.1.24,12.26.05,18.37-.06,1.9-3.38,11.36.61,10.12,1.91-.59,11.44-27.21,13.11-28.26,2.22-1.39,13.77.54,17.4-.21l-25.75,55.58c-7.49.97-15.72,1.62-23.05,0-1.56-4.78,1.16-17.23-.01-23.05-6.66,4.81-9.85,17.95-14.9,23.05-6.61,1.14-13.71,1.28-20.34,0Z"/>
  <path class="cls-12" d="M133.52,520.49c.24,3.06-3.93,18.73-5.35,19.75-2.64,1.89-13.79-.13-17.71.59l17.68-71.79c4.73.65,12.53-1.15,16.68-.06,1.11.29.81,2.93,1.54,2.72,4.01-1.15,7.74-5.46,13.59-5.46,30.89-.01,18.61,63.36-14.58,58.01-4.12-.66-7.45-4.05-11.85-3.76Z"/>
  <path class="cls-14" d="M366.72,448.64l-20.47,75.79c-4.17.11-8.52.51-12.69.07-1.91-.2-3.36-2.39-5.24-2.36-2.21.03-5.74,2.42-9.73,2.53-34.01,1.01-21.9-62.61,13.48-56.96,3.93.63,6.36,3.76,10.24,3.98l5.44-23.05h18.98Z"/>
  <path class="cls-25" d="M507.72,287.31c2.4,7.66.65,14.04,0,21.69h-120.67c1.28-9.25-3.96-15.29-9.49-21.69h130.16Z"/>
  <path class="cls-4" d="M533.48,163.94c.26,7.78.17,15.71-2.71,23.05h-104.4l-1.36-23.05h108.47Z"/>
  <path class="cls-16" d="M203.34,498.81c-3.31,1.03-3.71,11.1,3.04,12.01,4.83.66,5.94-5.68,10.55-6.56,2.91-.55,11.79-.44,14.91-.03,1.59.21,2.7-.56,1.97,1.99-3.1,10.75-18.27,20.61-29.12,17.98-.94-.23-4.65-.43-5.8-.86-12.62-4.69-18.63-7.86-17.82-23.63,1.18-22.78,24.84-42.72,46.32-30.37,10.83,6.23,11.4,29.48,7.13,29.48-6.29,0-27.08-1.28-31.18,0Z"/>
  <path class="cls-9" d="M294.86,498.81h-33.9c-1.31,5.5.81,14.69,7.78,11.25,3.8-1.87,1.66-4.97,9.14-5.82,29.21-3.33,5.93,19.21-10.85,20.33-46.56,3.12-26.88-70.82,15.99-56.63,13.4,4.44,15.2,18.55,11.84,30.87Z"/>
  <path class="cls-5" d="M488.74,247.99l-4.73,1.37-363.52.07c-1.79.41-2.31-.77-3.24-1.44h371.5Z"/>
  <path class="cls-3" d="M378.92,155.8c-.93.68-1.45,1.85-3.24,1.44l-286.24-.06c-1.44-.13-3.38.63-3.37-1.38h292.86Z"/>
  <path class="cls-20" d="M533.48,155.8c-.66,1.93-1.79,1.32-3.31,1.42-34.86,2.31-72.19-1.91-107.33.02-1.79.41-2.31-.76-3.24-1.44h113.89Z"/>
  <path class="cls-6" d="M233.85,357.81l-100.33,1.36c.8-4.95,91.46.98,100.33-1.36Z"/>
  <path class="cls-23" d="M284.01,112.42c-.78.38-1.65,1.87-3.25,1.43l-97.09-.08c.94-.69,1.45-1.84,3.24-1.44l97.09.08Z"/>
  <path class="cls-28" d="M510.43,102.93c-32.07-.06-64.2.08-96.26,0h96.26Z"/>
  <path class="cls-7" d="M256.9,204.61c-.09,4.47-82.55-.62-89.48,1.36,1.42-4.24,79.76.43,89.48-1.36Z"/>
  <path class="cls-11" d="M212.15,298.16h-86.77c1.37-.37,1.94-1.25,4.58-1.46,22.77-1.77,51.38-.17,74.75.08,2.29.02,6.03-.87,7.44,1.38Z"/>
  <path class="cls-18" d="M223,88.02c-.57.18-1.77,1.93-3.25,1.43l-76.74-.08c1.33-.95,1.06-1.2,3.24-1.44,23.88-2.56,52.37,2.08,76.75.08Z"/>
  <path class="cls-28" d="M412.82,102.93c-17.15-.04-34.37-.1-51.52,0,1.41-2.24,5.14-1.36,7.44-1.38,12.19-.13,24.45-.15,36.65,0,2.29.03,6.03-.87,7.44,1.38Z"/>
  <path class="cls-10" d="M422.31,524.57c-2.28,2.03-17.24,1.88-21.09,1.39-1.38-.18-1.51-.02-1.96-1.39h23.05Z"/>
  <path class="cls-5" d="M384.34,524.57c-2.24,2.27-19.64,2.13-20.34,0h20.34Z"/>
  <path class="cls-27" d="M484.67,525.92c-5.06-.49-10.59,1.39-14.91-1.36,3.01.62,14.01-1.49,14.91,1.36Z"/>
  <path class="cls-1" d="M473.83,497.46c-1.93,7.38-2.26,15.29-12.09,12.08-2.01-7.92,5.43-11.55,12.09-12.08Z"/>
  <path class="cls-15" d="M149.41,482.76c12.09-1.84,7.45,21.41.38,24.86-18.05,8.81-9.27-23.51-.38-24.86Z"/>
  <path class="cls-21" d="M332.5,506.61c-2.1,2.47-10.75,2.69-12.56-1.02-4.84-9.92,7.59-31.29,15.62-22.4,2.45,2.71-1.46,21.54-3.06,23.42Z"/>
  <path class="cls-8" d="M217.58,489.32c-5.02-.27-14.12,2.14-11.46-5.4,3.45-9.77,14.32-5.08,11.46,5.4Z"/>
  <path class="cls-13" d="M270.08,478.67c7.68-2.06,12.94,12.33-1.71,10.72-8.41-.92-1.63-9.83,1.71-10.72Z"/>
</svg>