<?xml version="1.0" encoding="UTF-8"?>
<svg id="Layer_1" data-name="Layer 1" xmlns="http://www.w3.org/2000/svg" viewBox="0 0 598.91 601.53">
  <defs>
    <style>
      .cls-1 {
        fill: #0768a5;
      }

      .cls-2 {
        fill: #fef5f4;
      }

      .cls-3 {
        fill: #fefefe;
      }

      .cls-4 {
        fill: #0868a5;
      }

      .cls-5 {
        fill: #ed1f28;
      }

      .cls-6 {
        fill: #ed1f26;
      }

      .cls-7 {
        fill: #ee2c38;
      }
    </style>
  </defs>
  <path class="cls-4" d="M10.6,250.77c-1.53-.43-5.14-4.43-4.05-6.86L63.16,62.52l391.95.29,141.24,445.13h-200.74c-5.82-10.53-11.25-46.95-16.4-53.9-3.27-4.41-29.52-4.51-31.87-1.14-8.31,11.9-8.58,42.85-19.14,55.04H6.11L87,250.77c-19.97-3.6-59.07,4.85-76.4,0Z"/>
  <path class="cls-3" d="M36.07,226.85l46.97-140.65,357.21.41,126.13,397.4h-151.3c-7.18,0-15.08-46.78-20.96-53.83-5.06-6.06-50.8-2.78-61.48-1.54l-17.93,55.37H39.06L116.96,226.85H36.07Z"/>
  <path class="cls-7" d="M434.55,454.11q7.72-4.2,0,0c-9.34-7.22-12.59-47.61-20.97-56.82-33.27-3.68-68.6-3.75-101.87,0-8.93,9.81-10.33,48.58-20.97,56.82q-5.15-2.39,0,0c-2.96,2.29-2.71,2.66-7.16,3.17-16.7,1.92-58.51,1.77-75.38-.03-4.45-.47-7.51-.22-10.21-4.59l73.41-225.67c1.96-3.86,4.8-5.26,8.93-6.04,13.65-2.61,70.19,3.18,75.91-.49,8.04-12.35,29.74-105.92,35.2-107.42,6.28-1.72,26.97-1.59,28.85,6.94l107.01,332.68c-2.69,4.37-5.76,4.12-10.21,4.59-16.9,1.8-58.63,1.94-75.38.03-4.45-.51-4.21-.88-7.16-3.17Z"/>
  <path class="cls-1" d="M365.64,113.22c3.15,3.2-22.25,75.01-26.91,85.27l-83.82,1.57-78.1,251.71c-.49,2.23-6.27,5.33-7.41,5.33h-89.88c-.37,0-5.84-4.26-3.2-6.09l79.6-251.08h-80.9l26.97-86.72h263.66Z"/>
  <path class="cls-6" d="M413.58,397.3h-101.87c2.89-3.17,3.01-2.72,7.19-3.16,19.97-2.12,67.52-2.12,87.49,0,4.18.44,4.3-.01,7.19,3.16Z"/>
  <path class="cls-2" d="M365.6,241.81c2.54,2.51,17.92,60.22,18.03,68.77-7.14-1.6-46.21,4.69-43.66-6.09,9.6-17.6,11.31-40.57,19.4-58.49,1.2-2.65,1.23-9.15,6.24-4.19Z"/>
  <path class="cls-5" d="M290.74,454.11c-26.11-1.26-53.47,1.71-79.45,0-6-.39-8.67,2.37-7.41-5.98,23.13,6.07,49.18,2.03,73.38,2.99,4.15.16,12.32-2.09,13.48,2.99Z"/>
  <path class="cls-5" d="M434.55,454.11l1.44-5.93c7.62,6.9,85.48-.22,85.48,4.43l-86.92,1.5Z"/>
</svg>