<?xml version="1.0" encoding="UTF-8"?>
<svg id="Layer_1" data-name="Layer 1" xmlns="http://www.w3.org/2000/svg" viewBox="0 0 598.91 601.53">
  <defs>
    <style>
      .cls-1 {
        fill: #dde250;
      }

      .cls-2 {
        fill: #6ec389;
      }

      .cls-3 {
        fill: #eee851;
      }

      .cls-4 {
        fill: #83ca9b;
      }

      .cls-5 {
        fill: #6bc289;
      }

      .cls-6 {
        fill: #7ec896;
      }

      .cls-7 {
        fill: #62bf82;
      }

      .cls-8 {
        fill: #6fc38b;
      }

      .cls-9 {
        fill: #5bbd7d;
      }

      .cls-10 {
        fill: #efe851;
      }

      .cls-11 {
        fill: #68c185;
      }

      .cls-12 {
        fill: #1baf55;
      }

      .cls-13 {
        fill: #fdfefd;
      }

      .cls-14 {
        fill: #81c999;
      }

      .cls-15 {
        fill: #fcfdfc;
      }

      .cls-16 {
        fill: #5bbe7e;
      }

      .cls-17 {
        fill: #23b057;
      }

      .cls-18 {
        fill: #f6eb52;
      }

      .cls-19 {
        fill: #8dcda0;
      }

      .cls-20 {
        fill: #f2ea51;
      }

      .cls-21 {
        fill: #51bb76;
      }

      .cls-22 {
        fill: #40b354;
      }

      .cls-23 {
        fill: #53bb78;
      }

      .cls-24 {
        fill: #5abd7c;
      }

      .cls-25 {
        fill: #f0e951;
      }

      .cls-26 {
        fill: #5dbe7e;
      }

      .cls-27 {
        fill: #4ab554;
      }

      .cls-28 {
        fill: #64c083;
      }

      .cls-29 {
        fill: #e3e451;
      }

      .cls-30 {
        fill: #6fc38c;
      }

      .cls-31 {
        fill: #f5eb52;
      }

      .cls-32 {
        fill: #6cc28a;
      }

      .cls-33 {
        fill: #ede851;
      }

      .cls-34 {
        fill: #7ac794;
      }

      .cls-35 {
        fill: #68c186;
      }

      .cls-36 {
        fill: #62bf81;
      }

      .cls-37 {
        fill: #65c083;
      }

      .cls-38 {
        fill: #56bc79;
      }

      .cls-39 {
        fill: #73c04d;
      }

      .cls-40 {
        fill: #e3e450;
      }
    </style>
  </defs>
  <path class="cls-12" d="M512.15,106.3c2.02,10.45,5.61,14.93,10.76,13.42,2.6,3.32,5.7,7.32,8.07,10.74.26,7.01,3.85,12.38,10.76,16.11,13.63,23.03,21.74,41.44,29.58,67.12-1.42,8.16-.98,11.09,3.67,17.67,2.63,14.47,3.22,29.29,1.79,44.48,2.32-.73,4.38-.22,6.2,1.45,3.17,38.27-3.19,76.4-11.66,113.6-29.48,96.64-99.14,167.49-196.28,195.99-16.6,4.41-33.31,6.73-50.12,6.94.5-5.18-1.62-3.91-6.35,3.8-84.53,4.22-159.37-26.32-217.79-85.91-3.64-9.34-6.47-14.88-16.13-18.79C-152.06,195.44,260.35-179.28,512.15,106.3Z"/>
  <path class="cls-21" d="M571.3,390.89c5.45-37.42,13.51-74.58,10.73-112.75-5.64.98-1.35,12.69-10.71,10.71-.94-12.46,2.54-25.87-2.72-37.55l8.14-1.39c.41-2.49-1.77-15.61-2.84-18.01-2.95-6.57-12.94-1.18-2.6-18.22,18.4,60.31,18.4,116.89,0,177.2Z"/>
  <path class="cls-37" d="M318.55,597.62c1.7-12.42-18.98,1.52-16.13-10.73,5.16,2.22,24.96-4.53,26.84-2.63.76.76-.83,6.74.2,7.72,3.83,3.64,37.52-6.84,45.56-5.1-20.72,6.08-34.31,9.63-56.46,10.74Z"/>
  <path class="cls-11" d="M100.76,511.71c-7.83-7.99-9.78-10.81-16.13-18.79,15.83.58,15.16,4.82,16.13,18.79Z"/>
  <path class="cls-38" d="M522.9,119.72c-2.94,9.21-10.72,4.38-13.42-1.38-2.22-4.74,9.42-2.89,2.67-12.04,4.93,5.6,6.72,8.26,10.76,13.42Z"/>
  <path class="cls-35" d="M541.72,146.57c-10.37-3.5-16.4-3.96-10.76-16.11,4.22,6.11,6.59,9.08,10.76,16.11Z"/>
  <path class="cls-13" d="M98.07,420.42c-9.87.63-22.07-26.85-19.24-31,.48-.71,10.9-10.96,11.96-11.64,8.57-5.48,18.61-4.05,26.11,2.37,8.64,16.55-5.5,25.07-5.31,28.21.55,9.1,32.03,4.98,35.92-20.69,3.56-23.53-16.22-39.46-26.38-56.03-10.23-16.66-20.31-33.37-30.58-50.01-3.67-5.95-9.25-21.83-12.56-25.04-4.5-4.35-21.59.34-17.35-14.35,2.13-7.36,59.32-16.28,69.73-15.14,7.51,22.03-16.85,16.93-18.48,25.89s29.41,41.16,35.78,49.46c3.53,4.6,8.93,24.32,17.61,18.62,3.58-2.35,11.71-73.91,13.55-84.41-.63-3.59-11.61.88-15.05-3.98-14.29-20.17,52.98-19.84,55.29-12.19,2.99,9.95-10.8,10.77-14.71,14.73-8.06,8.13-21.58,96.08-26.91,115.43-12.06,43.78-24.17,85.88-79.35,69.78Z"/>
  <path class="cls-13" d="M355.89,267.1c-12.71,6.7-98.54,9.36-101.48,14.09-3.37,5.43,1.23,22.04,4.98,27.82,17,26.26,61.35,26.22,80.72,2.72,2.96-3.59,13.86-31.58,18.59-15.83,6.73,22.42-43.69,56.34-63.19,57.22-10.81.49-47.89-13.93-56.31-21.26-44.25-38.57-16.02-128.41,43.5-131.39,36.95-1.85,79.61,26,73.2,66.63Z"/>
  <path class="cls-15" d="M477.1,176.15c1.43,9.15,13.96,41.17,5.66,47.13-9.92,7.12-19.01-12.86-27.26-18.81-19.11-13.79-64.5-13.87-59.08,15.88,3.21,17.65,39.48,13.66,51.89,15.46,18.5,2.69,51.17,15.92,50.52,38.18-1.11,38.28-46.14,55.77-78.09,45.72-8.92-2.81-16.32-11.33-26.9-9.38,1.7,12.75-.12,16.04-13.37,16.07-6.49-15.67-3.14-33.3-10.84-48.25,18.03-4.34,22.05,10.1,34.05,18.32,15.01,10.28,33.35,14.95,51.27,9.12,14.79-4.81,23.32-18.16,11.14-31.17-17.65-18.85-103.98.5-102.09-51.37,1.45-39.66,44.5-50.08,76.69-38.71,6.02,2.13,17.96,15.63,23.03,10.56,2.36-2.36-6.66-21.87,13.36-18.75Z"/>
  <path class="cls-31" d="M337.37,425.79c-.14,3.34.78,16.26-4.03,16.06-5.03-.22-34.94-60.71-39.04-30.88-1.85,13.43-2.5,19.85-7.3,33.05-.74,2.04.26,8.39-4.71,5.92-1.86-.92-12.46-17.21-14.34-20.6-9.07-16.37-12.66-49.97-35.42-46.52-1.97-11.42,38.79-15.01,40.33-13.4,3.47,14.83-6.18,8.94-9.62,13.21-5.15,6.38,11.17,42.09,18.98,40.46,6.99-1.45,7.44-56.93,26.57-53.32,11.31,2.14,10.03,39.71,25.9,37.22,4.74,1,5.63,7.27,2.69,18.79Z"/>
  <path class="cls-18" d="M498.7,417.74c-.71-2.64-12.1-14.7-14.5-19.08-6.82-12.44-12.84-27.07-19.23-39.86l-17.36-13.52,43.01-5.38c1.72,8.06-11,7.47-10.42,14.24.39,4.64,19.31,37.61,26.54,31.39,1.67-1.43,9.7-41.44,8.11-42.97-.95-.91-9.85.94-10.8,0-.29-.28-.27-7.73,0-8.03,1.26-1.34,28.19-4.01,32.32-1.39,10.65,6.76-6.8,6.61-9.42,12.14l-15.99,64.69c.03,3.11-3.55,5.84-4.2,7.77-3.44,6.69-5.57,7.65-8.07,0Z"/>
  <path class="cls-20" d="M412.66,350.62c28.73,1.75,22.75,24.77,28.08,45.79.72,2.85,8.72,23.25,12.24,14.58.84-5.08-.46-16.64,8.06-14.72-4.01,46.54-21.08,18.45-33.62,18.86-3.81.12-12.75,7.86-19.98,9.46-25.62,5.66-40.54-8.03-24.36-31.01,1.3-16.97,21.22-19.65,36.08-19.81-2.76-6.17-5.83-12.1-9.2-17.78-24.62-1.43-19.9-10.16,2.69-5.37Z"/>
  <path class="cls-3" d="M383.07,100.94c9.05,9.6-36.84,58.69-47.06,64.36-4.16-3.24-4-3.35-2.84-8.1,1.51-6.18,31.76-45.89,37.69-51.03,3.98-3.44,5.97-6.45,12.21-5.23Z"/>
  <path class="cls-25" d="M237.88,176.09c-5.86,5.03-72.37-33.89-72.53-38.92,3.27-4.7,6.66-4.52,11.85-3.96,8.3.89,43.75,23.1,51.23,29.53,2.08,1.78,12.47,10.77,9.46,13.35Z"/>
  <path class="cls-10" d="M283.58,151.93c-4.38.9-5.57-1.14-7.7-4.37-4.65-7.06-14.51-69.59-11.09-73.47,20.02-2.06,21.59,74.64,18.79,77.83Z"/>
  <path class="cls-22" d="M409.97,355.99c8.49,1.57,18.1,13.12,13.09,21.14-3,4.8-26.82-2.25-39.98,16.45-.34-1.54-2.84-4.61-2.69-5.37-3.14-2.76-3.1-6.18.13-10.26-7.71-22.94,10.89-28.61,29.45-21.96Z"/>
  <path class="cls-1" d="M366.95,358.67c6.72,1.49.73,13.15-5.38,10.74-5.59.52-8.5-3.06-11.15,3.69-6.33,16.09-7.29,36.3-13.04,52.69.34-8.12-2.65-15.61-2.69-18.79-.11-9.44,8.38-31.23,7.9-33.37-.98-4.32-10.87-3.84-13.22-8.24-.04-5.96,26.1-8.11,31.5-8.49,3.13-.22,5.38,1.8,6.09,1.78Z"/>
  <path class="cls-33" d="M498.7,417.74h8.07c-4.11,12.19-7.97,30.11-25.62,29.77-21.22-.41-22.63-29.94-7.99-29.84,16.2.11,3.16,16.48,4.03,20.15,2.35,9.93,26.13-2.87,21.52-20.08Z"/>
  <path class="cls-29" d="M256.7,157.3c-3.07,3.13-6.51-.91-8.87-3.3-4.58-4.65-30.89-37.59-26.06-42.32,5.14-.92,7.29.81,10.92,3.83,5.29,4.4,29.48,36.2,24,41.78Z"/>
  <path class="cls-40" d="M322.59,100.98c11.64-.48-4.91,53.26-13.44,53.59-4.47.17-3.48-7.47-2.85-10.81,1.22-6.42,11.42-42.58,16.29-42.78Z"/>
  <path class="cls-25" d="M412.66,350.62c-5.32-.32-10.79.2-16.12.03v2.63s11.64.54,11.64.54l1.8,2.17c-6.05-1.12-22.28-.24-25.72,5.37-2.8,4.57,2.19,11.31,1.55,17.29-.47,4.39-5.03,7.62-5.41,9.56-2.34.19-3.94-2.1-5.38-2.68-12.46-9.56-9.96-24.44,5.38-29.53,8.39-7.73,22.54-12.07,32.27-5.37Z"/>
  <path class="cls-36" d="M116.89,380.15c-32.9-15.35-46.82,22.06-18.82,40.27-2.13-.62-4.89.34-7.97-1.33-3.61-1.95-17.97-29.04-16.22-30.87.39-.4,4.99.87,7.19-.69,4.23-3,5.78-13.14,16.29-15.01,6.6-1.18,16.23,1.32,19.53,7.63Z"/>
  <path class="cls-39" d="M548.74,326.7c11.62-3.71,15.88,10.05,9.28,14.68-11.68,8.18-19.61-11.38-9.28-14.68Z"/>
  <path class="cls-22" d="M380.39,355.99c-8.72,8.03-15.54,19.98-5.38,29.53-9.98-4.1-6.09-3.29-9.65-13.23-.75-2.1-3.72-2.66-3.79-2.88-.38-1.14,6.15-7.27,5.38-10.74,4.69-.16,9.01-1.41,13.44-2.68Z"/>
  <path class="cls-2" d="M33.51,307.66c1.02,1.08,7.64,30.75-2.65,26.86.57-.95-6.46-36.49,2.65-26.86Z"/>
  <path class="cls-30" d="M552.46,270.09c2.05,2.34-5.7,23.62-13.42,21.45-1.3-1.4,8.7-26.84,13.42-21.45Z"/>
  <path class="cls-9" d="M452.98,71.38c-2.41,2.37-20.66-11.63-21.5-16.07,5.3-2.64,25.55,12.08,21.5,16.07Z"/>
  <path class="cls-23" d="M216.36,412.38c3.03,3.52-6.64,20.49-10.73,16.08-2.09-2.26,6.59-20.89,10.73-16.08Z"/>
  <path class="cls-24" d="M452.99,522.47c-1.12,3.29-13.24,16.27-16.12,13.38-3.17-3.18,10.24-16.53,16.12-13.38Z"/>
  <path class="cls-32" d="M205.61,299.62c.93,3.7-.4,13.37-4.02,13.36-5.59-.01-5.82-15.61,4.02-13.36Z"/>
  <path class="cls-28" d="M55.04,369.4c-6.21,4.16-9.46-11.88-8.04-13.4,4.04-4.31,10.84,8.36,8.04,13.4Z"/>
  <path class="cls-34" d="M318.54,92.86c-4.98,1.84-13.21-8.41-10.73-10.71,8.13-1.21,11.95,2.33,10.73,10.71Z"/>
  <path class="cls-26" d="M256.7,436.54c2.8,5.04-4,17.71-8.04,13.4-1.42-1.51,1.83-17.56,8.04-13.4Z"/>
  <path class="cls-14" d="M264.76,517.09c3.39,3.14-10.24,15.26-13.38,6.7,1.92-3.54,10.54-9.33,13.38-6.7Z"/>
  <path class="cls-4" d="M479.87,106.28h-10.73s0-8.03,0-8.03c4.95-.63,7.89-.16,10.71,4.05v3.97Z"/>
  <path class="cls-19" d="M151.81,509.03c.64.53,3.5,12.55,2.72,13.4-6.57,7.08-11.99-21.02-2.72-13.4Z"/>
  <path class="cls-6" d="M267.45,576.16c4.4,4.02-8.4,10.76-13.43,8.01.52-4.59,10.6-10.61,13.43-8.01Z"/>
  <path class="cls-5" d="M73.86,286.17c-4.27,4.31-10.66-8.43-8.03-13.41,1.44-2.01,10.34,11.07,8.03,13.41Z"/>
  <path class="cls-8" d="M272.83,20.4c0,10.55-10.67,10.69-10.73,0h10.73Z"/>
  <path class="cls-7" d="M396.51,498.3c1.76,4.94-8.2,13.15-10.73,10.71-1.76-4.94,8.2-13.15,10.73-10.71Z"/>
  <path class="cls-16" d="M173.34,500.98c1.65,1.78-.6,9.39-4.06,10.7-9.34,3.54-1.02-16.15,4.06-10.7Z"/>
  <path class="cls-17" d="M326.37,256.42l-68.57,10.83c-11.85-.39-4.67-28.49-.3-34.01,3.06-3.86,25.19-16.45,30.3-16.78,16.1-1.07,43.27,22.25,38.57,39.97Z"/>
  <path class="cls-27" d="M422.69,408.99c-14.66,15.88-47.64.73-23.35-19.32,23.88-19.7,32.05,9.9,23.35,19.32Z"/>
</svg>